
      <svg data-logo="logo" xmlns="http://www.w3.org/2000/svg" viewBox="0 0 40 41">
        <g id="logogram" transform="translate(0, 0) rotate(0) "><path fill-rule="evenodd" clip-rule="evenodd" d="M22.9566 1.37434C24.566 2.13713 25.8147 3.6214 26.2131 5.50726L27.5223 11.7043C27.9701 13.8236 28.0086 15.9871 27.6586 18.0833C27.7459 18.097 27.8337 18.1085 27.9219 18.1177C28.3361 16.3109 28.4558 14.4311 28.2595 12.5521L27.6013 6.25131C27.3569 3.91139 25.7519 2.04672 23.6604 1.36937C23.5574 1.36381 23.4536 1.361 23.3492 1.361C23.2172 1.361 23.0863 1.36549 22.9566 1.37434ZM22.6131 1.40819C24.3064 2.10565 25.6385 3.60617 26.0476 5.54265L27.3568 11.7396C27.8 13.8376 27.8384 15.9792 27.4919 18.0541C27.4195 18.0403 27.3475 18.0249 27.2758 18.008C27.5173 15.6593 27.2745 13.263 26.5352 10.974L24.5894 4.94865C24.1045 3.447 23.0803 2.27318 21.8028 1.57366C22.0657 1.49959 22.3363 1.44395 22.6131 1.40819ZM22.6357 1.2338C22.7591 1.21884 22.8836 1.20769 23.0092 1.20051C22.7733 1.15413 22.5328 1.12248 22.2888 1.10646C22.4059 1.1453 22.5216 1.18778 22.6357 1.2338ZM21.6209 1.10188C21.8483 1.14984 22.0716 1.21158 22.2899 1.28635C22.0498 1.33018 21.815 1.38863 21.586 1.46076C21.3705 1.35409 21.1486 1.26059 20.9214 1.18088C21.0497 1.15842 21.1796 1.14016 21.3109 1.12627C21.4146 1.1153 21.518 1.10719 21.6209 1.10188ZM21.6343 0.930797C22.3488 0.896583 23.0427 0.993177 23.6915 1.20063C26.7867 1.37896 29.2419 3.96075 29.2419 7.11952V13.4549C29.2419 15.0559 29.0184 16.6336 28.5889 18.146H33.7108C36.9653 18.146 39.6035 20.8003 39.6035 24.0747C39.6035 24.9192 39.4281 25.7224 39.1118 26.4495C38.9964 27.1595 38.7582 27.8221 38.4217 28.4173C38.2332 29.1115 37.9275 29.7455 37.5309 30.3022C37.2715 30.9721 36.9021 31.57 36.4505 32.0815C36.1227 32.7214 35.6926 33.2781 35.1894 33.7398C34.7968 34.3418 34.3111 34.8499 33.7627 35.2562C33.3098 35.8132 32.7742 36.2673 32.1868 36.6135C31.6787 37.1197 31.099 37.5149 30.479 37.7975C29.9213 38.2473 29.3038 38.5794 28.6582 38.7952C28.0565 39.1843 27.4076 39.4497 26.7427 39.5966C26.1039 39.9201 25.4311 40.1158 24.7547 40.1918C24.0857 40.4465 23.3962 40.5703 22.7155 40.5748C22.0238 40.7576 21.3253 40.8083 20.6479 40.7411C19.9411 40.8503 19.2411 40.8272 18.5744 40.6892C17.8601 40.7233 17.1664 40.6267 16.5177 40.4193C13.4223 40.2412 10.9669 37.6594 10.9669 34.5004V29.2182C10.9669 27.2417 11.3074 25.3005 11.9559 23.4741H6.49622C3.24177 23.4741 0.603516 20.8197 0.603516 17.5454C0.603516 16.7014 0.778777 15.8987 1.09468 15.1719C1.20991 14.4617 1.44805 13.7988 1.7846 13.2034C1.97298 12.5093 2.2786 11.8753 2.67505 11.3187C2.93476 10.6474 3.30509 10.0485 3.75785 9.53621C4.08559 8.89701 4.5155 8.34113 5.01821 7.87984C5.41044 7.27858 5.89563 6.77085 6.44342 6.36485C6.89609 5.80782 7.43161 5.35366 8.01882 5.00735C8.52705 4.50082 9.10697 4.10539 9.72715 3.82271C10.2853 3.37237 10.9033 3.04009 11.5496 2.82423C12.1513 2.4353 12.8002 2.16998 13.465 2.02331C14.1039 1.6997 14.7768 1.50401 15.4534 1.42804C16.1223 1.17342 16.8118 1.04959 17.4925 1.04517C18.1843 0.862259 18.8829 0.811611 19.5604 0.878821C20.2674 0.769652 20.9675 0.79273 21.6343 0.930797ZM20.2294 0.984699C20.4738 0.974956 20.7163 0.981134 20.9557 1.00245C20.8317 1.02281 20.709 1.047 20.5879 1.07487C20.4695 1.0411 20.3499 1.01101 20.2294 0.984699ZM18.8932 1.02142C18.6529 1.02538 18.411 1.04473 18.169 1.08011C18.2916 1.09361 18.4137 1.11096 18.5348 1.13211C18.6524 1.09166 18.7719 1.05471 18.8932 1.02142ZM18.8776 1.20247C19.0028 1.16665 19.13 1.13485 19.2592 1.10722C19.3612 1.08541 19.4631 1.06648 19.5649 1.05038C19.796 1.07417 20.0245 1.11209 20.2493 1.16351C20.0153 1.23233 19.7878 1.31515 19.5677 1.41092C19.3423 1.3275 19.1119 1.25784 18.8776 1.20247ZM18.2074 1.25587C17.9784 1.22835 17.7471 1.21467 17.5147 1.21532C17.4152 1.24205 17.3157 1.27161 17.2164 1.30405C17.091 1.34508 16.9678 1.39006 16.8471 1.43881C17.0859 1.46926 17.3223 1.51432 17.5552 1.5736C17.7641 1.4552 17.9818 1.34892 18.2074 1.25587ZM17.7905 1.63871C18.0323 1.51129 18.2854 1.40029 18.5487 1.30744C18.8193 1.35677 19.0858 1.42556 19.346 1.51299C19.0853 1.63969 18.8357 1.78492 18.5992 1.94682C18.3371 1.82425 18.0667 1.72134 17.7905 1.63871ZM17.3452 1.69842C17.0774 1.6388 16.8052 1.59839 16.5308 1.57781C16.2786 1.69786 16.0383 1.83489 15.8111 1.98706C16.0945 2.04019 16.374 2.11414 16.6475 2.2085C16.866 2.02257 17.0991 1.85186 17.3452 1.69842ZM16.832 2.27563C17.0654 2.08388 17.3151 1.90976 17.5794 1.75574C17.873 1.83421 18.1605 1.93606 18.4388 2.06048C18.1773 2.25258 17.9326 2.46556 17.707 2.69672C17.4259 2.53151 17.1331 2.39097 16.832 2.27563ZM16.6836 2.40179C16.4332 2.62221 16.2031 2.86355 15.9957 3.12247C16.3186 3.28095 16.6296 3.47065 16.9242 3.6913C17.1182 3.38211 17.3401 3.09153 17.5868 2.82345C17.2971 2.65586 16.9948 2.5151 16.6836 2.40179ZM16.4998 2.33839C16.2597 2.55693 16.0385 2.79446 15.8382 3.04806C15.5415 2.91326 15.2356 2.80425 14.924 2.7212C15.1362 2.50599 15.3664 2.3066 15.6133 2.12565C15.9135 2.17281 16.2101 2.24389 16.4998 2.33839ZM15.5703 1.94705C15.7658 1.80731 15.9712 1.6787 16.186 1.56242C15.9555 1.55913 15.7241 1.56985 15.4932 1.59491C15.3968 1.63199 15.301 1.67186 15.2056 1.71457C15.0851 1.76859 14.9672 1.82629 14.8523 1.88748C15.0928 1.89266 15.3326 1.91259 15.5703 1.94705ZM14.5522 2.05897C14.8271 2.05059 15.102 2.06215 15.3744 2.09327C15.1456 2.27173 14.9316 2.46597 14.7336 2.67384C14.452 2.60876 14.1662 2.56463 13.879 2.54159C14.0892 2.36638 14.3139 2.20485 14.5522 2.05897ZM14.5024 1.89035C14.609 1.8262 14.7183 1.76506 14.8301 1.70712C14.5958 1.76127 14.3633 1.83078 14.1339 1.91602C14.2566 1.90357 14.3795 1.89503 14.5024 1.89035ZM13.522 2.18508C13.7491 2.13586 13.9781 2.10088 14.2077 2.07992C14.0062 2.21812 13.8153 2.3676 13.6354 2.52711C13.3954 2.51782 13.1549 2.52321 12.9151 2.54334C13.023 2.47042 13.1342 2.40068 13.2485 2.3343C13.3389 2.28181 13.4301 2.23208 13.522 2.18508ZM12.8742 2.36637C12.647 2.44482 12.423 2.53837 12.2037 2.64723C12.3244 2.62195 12.4458 2.60054 12.5676 2.58297C12.6668 2.50799 12.7691 2.43573 12.8742 2.36637ZM12.294 2.80248C12.108 2.96115 11.9336 3.12993 11.7712 3.30753C11.5315 3.32355 11.2928 3.35422 11.0564 3.39947C11.1562 3.3156 11.2595 3.23455 11.3663 3.15651C11.4508 3.09473 11.5364 3.0356 11.6231 2.97914C11.8438 2.90632 12.0679 2.84747 12.294 2.80248ZM12.6345 2.74544C12.4126 2.91562 12.2059 3.09992 12.015 3.29631C12.3031 3.28902 12.5919 3.30285 12.8787 3.33795C13.0541 3.11037 13.2468 2.89469 13.4558 2.69311C13.1816 2.69081 12.9071 2.70821 12.6345 2.74544ZM13.6967 2.70022C13.47 2.90614 13.2617 3.12867 13.073 3.36502C13.3914 3.41484 13.7069 3.49106 14.0159 3.59387C14.1888 3.32061 14.3841 3.06113 14.6003 2.81854C14.3024 2.75505 14.0001 2.71555 13.6967 2.70022ZM14.7896 2.86227C14.5635 3.1078 14.3598 3.37201 14.1803 3.6513C14.5179 3.77498 14.8471 3.93094 15.163 4.11944C15.3239 3.79156 15.5143 3.47925 15.7319 3.18672C15.4263 3.05048 15.1109 2.94225 14.7896 2.86227ZM15.889 3.25969C15.6656 3.55632 15.4709 3.87425 15.3079 4.20876C15.5858 4.38567 15.8526 4.58846 16.1052 4.81729L16.3094 5.0023C16.4432 4.59367 16.6202 4.20325 16.8355 3.83716C16.536 3.61151 16.2187 3.41893 15.889 3.25969ZM16.9704 3.94202C16.7536 4.31371 16.5774 4.711 16.4473 5.12715L17.5403 6.11737C17.6142 5.68073 17.7356 5.26036 17.8988 4.86183L17.663 4.59828C17.4469 4.35679 17.215 4.13798 16.9704 3.94202ZM18.0248 5.0026C17.8687 5.39967 17.7552 5.81837 17.69 6.253L20.7848 9.05649C23.2702 11.3081 25.0195 14.2293 25.8509 17.4372C25.8663 17.4462 25.8817 17.4552 25.8972 17.464C25.3284 14.4509 23.95 11.6234 21.8765 9.30643L18.0248 5.0026ZM26.0885 17.5682C25.5301 14.4738 24.1278 11.5677 22.0022 9.1925L18.0966 4.82845C18.2693 4.42823 18.4858 4.05162 18.7401 3.70474C18.9631 3.92542 19.171 4.16749 19.3609 4.43048L23.0622 9.556C24.7874 11.945 25.8447 14.7237 26.1664 17.6076C26.1402 17.5947 26.1143 17.5816 26.0885 17.5682ZM25.9365 17.6802C25.9271 17.6751 25.9177 17.67 25.9083 17.6649C25.9274 17.7433 25.9461 17.822 25.9642 17.9007C25.9679 17.9036 25.9715 17.9066 25.9752 17.9096C25.9628 17.8331 25.9499 17.7565 25.9365 17.6802ZM26.1699 18.0604C26.1556 17.9656 26.1406 17.871 26.1248 17.7766C26.1455 17.7868 26.1665 17.7968 26.1873 17.8067C26.1968 17.9016 26.2055 17.9967 26.2134 18.092C26.1988 18.0815 26.1843 18.071 26.1699 18.0604ZM25.6416 17.3078C24.801 14.1996 23.0877 11.3717 20.6716 9.18297L17.663 6.4576C17.6384 6.6748 17.6257 6.89567 17.6257 7.11952V7.63522L19.5601 9.04925C22.3956 11.122 24.5035 14.0111 25.63 17.3003C25.6339 17.3027 25.6377 17.3053 25.6416 17.3078ZM25.2939 16.866C24.1424 13.8129 22.1263 11.1356 19.4607 9.187L17.6257 7.84556V8.75504L18.3414 9.17087C21.4177 10.9578 23.8377 13.6572 25.2939 16.866ZM17.4565 8.65679V7.72192L16.1854 6.79279C16.1834 7.01144 16.1937 7.23249 16.217 7.45521L16.2705 7.96792L17.4565 8.65679ZM16.2924 8.17717L17.4565 8.85338V9.5648C17.3522 9.51549 17.2473 9.46719 17.1418 9.4199L16.3869 9.08179L16.2924 8.17717ZM16.0894 7.8627L16.0487 7.47299C16.0205 7.20282 16.0108 6.93501 16.0186 6.67082L14.8037 5.78278C14.733 6.20376 14.7086 6.63699 14.7346 7.07569L16.0894 7.8627ZM14.7504 7.28145L16.1113 8.07195L16.2084 9.00186L14.9572 8.4414L14.8507 7.93722C14.8044 7.71807 14.7712 7.4992 14.7504 7.28145ZM14.5601 6.97436C14.5422 6.53187 14.574 6.09536 14.6514 5.67143L14.3663 5.4631C14.1049 5.27199 13.8328 5.10637 13.5529 4.96579C13.4176 5.37464 13.3273 5.80003 13.2859 6.23422L14.5601 6.97436ZM13.2712 6.42216L14.5719 7.1777C14.5915 7.44137 14.6291 7.7068 14.6852 7.9726L14.7662 8.3558L13.3367 7.71541C13.2653 7.28181 13.2446 6.84832 13.2712 6.42216ZM13.1253 6.14094C13.1717 5.71335 13.2642 5.29452 13.3992 4.89147C13.0596 4.73345 12.7095 4.61147 12.3541 4.52472C12.1968 4.86155 12.0721 5.2132 11.9817 5.57442C12.2903 5.68939 12.5935 5.83202 12.8881 6.00314L13.1253 6.14094ZM11.9426 5.74141C12.2357 5.85181 12.5236 5.98793 12.8036 6.15055L13.1081 6.32745C13.0751 6.75724 13.0889 7.19477 13.1527 7.63302L11.8089 7.03108C11.8049 6.59488 11.8505 6.16228 11.9426 5.74141ZM11.8216 5.51739C11.9112 5.16309 12.033 4.81782 12.1853 4.48623C11.8583 4.41693 11.5274 4.37709 11.1967 4.36607C11.0263 4.65352 10.8816 4.95452 10.7637 5.26523C11.1196 5.31552 11.4737 5.39917 11.8216 5.51739ZM10.7045 5.42889C11.067 5.47777 11.4278 5.56225 11.782 5.68367C11.6897 6.09875 11.6412 6.52504 11.6395 6.95519L11.3892 6.84308C11.0785 6.70388 10.7621 6.59392 10.4433 6.51203C10.4956 6.14328 10.5831 5.78043 10.7045 5.42889ZM10.5911 5.24345C10.7038 4.94002 10.8412 4.64538 11.0025 4.36292C10.6979 4.36315 10.394 4.38777 10.0939 4.43629C9.91472 4.68513 9.75703 4.94631 9.6213 5.21694C9.94314 5.199 10.2675 5.20754 10.5911 5.24345ZM9.53676 5.3929C9.8669 5.36905 10.2001 5.37386 10.5326 5.40838C10.4157 5.75417 10.3303 6.11037 10.278 6.47216C9.91964 6.39117 9.55881 6.3452 9.1997 6.33262C9.28461 6.01124 9.3972 5.69668 9.53676 5.3929ZM9.42562 5.23113C9.55015 4.97188 9.694 4.72063 9.85688 4.47976C9.58796 4.53493 9.32287 4.60946 9.06379 4.703C8.88196 4.91584 8.71798 5.13928 8.57187 5.37127C8.85226 5.30378 9.13767 5.25685 9.42562 5.23113ZM8.44725 5.57884C8.74067 5.49899 9.04038 5.44251 9.34327 5.41021C9.21228 5.70807 9.10624 6.01553 9.02571 6.32912C8.70013 6.32744 8.37665 6.35308 8.05844 6.40478C8.16521 6.12142 8.29484 5.84512 8.44725 5.57884ZM8.33574 5.4333C8.45781 5.22567 8.59346 5.02416 8.74258 4.83011C8.5306 4.92147 8.32354 5.026 8.12267 5.14349C8.04979 5.21663 7.97846 5.29213 7.90877 5.36999C7.82041 5.46878 7.73605 5.56981 7.65562 5.67286C7.87744 5.57912 8.10463 5.49914 8.33574 5.4333ZM7.45074 5.95241C7.69861 5.83217 7.95441 5.73018 8.21595 5.64704C8.07903 5.90366 7.96216 6.16861 7.86532 6.43947C7.58174 6.49533 7.30289 6.57199 7.03111 6.66855C7.15231 6.42255 7.29214 6.18315 7.45074 5.95241ZM7.33714 5.81875C7.40856 5.7166 7.48353 5.61613 7.56215 5.51752C7.3703 5.66276 7.1861 5.82131 7.01112 5.99295C7.11814 5.93139 7.22682 5.8733 7.33714 5.81875ZM6.56083 6.48933C6.74834 6.35143 6.94332 6.22575 7.14447 6.11264C7.01641 6.32125 6.9025 6.53583 6.80268 6.75507C6.57982 6.8448 6.36233 6.94816 6.15157 7.06463C6.22074 6.95378 6.29411 6.84453 6.37171 6.73707C6.43291 6.65231 6.49599 6.56973 6.56083 6.48933ZM6.0423 6.92027C5.86673 7.08471 5.70023 7.26155 5.54417 7.45044C5.64408 7.37804 5.74609 7.30892 5.85 7.24316C5.91034 7.13418 5.97442 7.02649 6.0423 6.92027ZM5.6889 7.55566C5.5007 7.6892 5.31996 7.83456 5.14789 7.99129C5.09159 8.07827 5.03728 8.16736 4.98506 8.25828C4.9192 8.37312 4.8577 8.48925 4.80052 8.60647C4.99797 8.46853 5.20345 8.34297 5.4157 8.23042C5.49219 8.00192 5.58319 7.77655 5.6889 7.55566ZM5.34269 8.4645C5.10424 8.60042 4.8753 8.75348 4.65788 8.92268C4.55022 9.18178 4.46277 9.44538 4.39502 9.71154C4.64078 9.5604 4.89758 9.42714 5.16334 9.3133C5.20212 9.02799 5.26177 8.74423 5.34269 8.4645ZM5.34506 9.23897C5.391 8.93936 5.46077 8.64194 5.55481 8.34947C5.82513 8.21016 6.10639 8.09239 6.39584 7.99743C6.3292 8.3163 6.289 8.63919 6.27504 8.96282C5.95645 9.02927 5.64549 9.12193 5.34506 9.23897ZM5.14001 9.50917C4.86202 9.634 4.59454 9.78074 4.34019 9.94773C4.27703 10.2484 4.23854 10.5515 4.22397 10.8544C4.5106 10.7063 4.81022 10.5815 5.12016 10.482C5.10041 10.1586 5.10686 9.83325 5.14001 9.50917ZM5.28669 10.4312C5.26873 10.0991 5.2792 9.76497 5.31871 9.43264C5.62519 9.30735 5.94341 9.20836 6.27005 9.13788C6.26497 9.50312 6.29325 9.86836 6.35464 10.2287C5.98911 10.2631 5.63193 10.3316 5.28669 10.4312ZM5.13337 10.6566C4.81585 10.7611 4.50966 10.893 4.21789 11.0497C4.21311 11.3844 4.23742 11.7178 4.28977 12.0462C4.62277 11.9109 4.97087 11.8052 5.33083 11.7326C5.23234 11.3806 5.16627 11.0204 5.13337 10.6566ZM5.49787 11.7013C5.39657 11.3432 5.32989 10.9758 5.2987 10.605C5.6495 10.5013 6.01319 10.4308 6.38575 10.3968C6.46911 10.8138 6.59714 11.223 6.76946 11.6166H6.49622C6.15593 11.6166 5.82237 11.6457 5.49787 11.7013ZM5.37923 11.8965C5.01224 11.9695 4.65788 12.0778 4.31976 12.2178C4.62153 13.8038 5.58096 15.2538 7.08007 16.1246L12.5333 19.2924C12.9209 19.5175 13.2755 19.7885 13.5908 20.0974C13.6536 19.9974 13.7174 19.8981 13.7822 19.7994C13.4649 19.3593 13.0782 18.9677 12.6329 18.6422L7.53846 14.9183C6.47374 14.14 5.74412 13.07 5.37923 11.8965ZM13.8824 19.649C13.5617 19.215 13.1751 18.8281 12.7323 18.5045L7.63794 14.7806C6.60984 14.0291 5.90344 12.9977 5.54696 11.8657C5.85572 11.8138 6.17283 11.7868 6.49622 11.7868H6.8472C7.17043 12.4659 7.62856 13.094 8.21923 13.6291L12.8988 17.8683C13.3801 18.3044 13.7711 18.8226 14.0576 19.3933C13.9984 19.478 13.9399 19.5632 13.8824 19.649ZM13.8865 19.9495C13.8279 20.0395 13.7701 20.1301 13.7133 20.2212C13.7412 20.2503 13.7687 20.2797 13.7959 20.3095C13.8444 20.2182 13.8936 20.1273 13.9437 20.0369C13.925 20.0075 13.9059 19.9785 13.8865 19.9495ZM14.0373 19.8701C14.0209 19.8454 14.0043 19.8208 13.9875 19.7965C14.0383 19.7203 14.0898 19.6445 14.1418 19.5692C14.1521 19.5917 14.1623 19.6143 14.1722 19.6371C14.1266 19.7144 14.0816 19.7921 14.0373 19.8701ZM14.0457 20.2028C14.0018 20.2833 13.9585 20.3641 13.9159 20.4452C13.935 20.4676 13.954 20.4902 13.9729 20.513C14.0089 20.4308 14.0456 20.3488 14.0829 20.267C14.0706 20.2456 14.0583 20.2241 14.0457 20.2028ZM14.1698 20.0798C14.1601 20.0638 14.1504 20.0477 14.1405 20.0317C14.1778 19.9654 14.2155 19.8992 14.2538 19.8333C14.2589 19.8465 14.264 19.8597 14.269 19.8728C14.2354 19.9416 14.2024 20.0106 14.1698 20.0798ZM14.1843 20.4536C14.1532 20.5232 14.1226 20.5929 14.0924 20.6629C14.1037 20.6777 14.115 20.6926 14.1262 20.7074C14.1514 20.6351 14.1772 20.563 14.2035 20.491C14.1972 20.4785 14.1908 20.4661 14.1843 20.4536ZM14.2828 20.2778C14.2795 20.2717 14.2762 20.2655 14.2728 20.2594C14.2978 20.2052 14.3233 20.1511 14.3489 20.0971C14.3495 20.0988 14.35 20.1005 14.3506 20.1022C14.3277 20.1606 14.3051 20.2192 14.2828 20.2778ZM14.3063 20.7056C14.2864 20.762 14.2667 20.8185 14.2474 20.8751C14.2514 20.8809 14.2554 20.8868 14.2594 20.8925C14.2755 20.8319 14.2919 20.7713 14.3086 20.7107C14.3079 20.709 14.3071 20.7073 14.3063 20.7056ZM14.2026 21.1129C14.1951 21.1011 14.1873 21.0893 14.1796 21.0776C14.1558 21.1502 14.1325 21.2229 14.1097 21.2957C14.1227 21.3093 14.1355 21.3229 14.1483 21.3366C14.1658 21.262 14.1841 21.1874 14.2026 21.1129ZM14.2862 21.4907C14.2995 21.4322 14.3132 21.3738 14.3273 21.3155C14.3282 21.3171 14.3291 21.3186 14.33 21.3203C14.3196 21.3824 14.3096 21.4446 14.2999 21.5067C14.2954 21.5014 14.2907 21.496 14.2862 21.4907ZM14.102 21.5378C14.0856 21.5194 14.069 21.5011 14.0523 21.4829C14.0259 21.571 14.0002 21.6591 13.9753 21.7475C13.9987 21.7654 14.022 21.7836 14.045 21.802C14.0634 21.7138 14.0823 21.6258 14.102 21.5378ZM14.1929 21.9236C14.208 21.8487 14.2237 21.7739 14.2398 21.6991C14.2486 21.71 14.2576 21.7209 14.2664 21.7318C14.2556 21.808 14.2453 21.884 14.2354 21.9602C14.2213 21.9479 14.2072 21.9357 14.1929 21.9236ZM14.0073 21.9896C13.9806 21.9676 13.9535 21.9459 13.9263 21.9245C13.8981 22.0284 13.871 22.1325 13.8448 22.2368C13.8803 22.2558 13.9155 22.2752 13.9505 22.295C13.9684 22.1931 13.9874 22.0914 14.0073 21.9896ZM14.1062 22.3868C14.1218 22.2963 14.1382 22.206 14.1554 22.1158C14.1738 22.1322 14.1921 22.1487 14.2103 22.1652C14.1999 22.2546 14.1903 22.3441 14.1812 22.4335C14.1564 22.4177 14.1313 22.4022 14.1062 22.3868ZM13.9199 22.4735C13.8813 22.4509 13.8423 22.4289 13.803 22.4075C13.7739 22.5288 13.7462 22.6505 13.7197 22.7724C13.7686 22.789 13.8171 22.8062 13.8654 22.8241C13.8824 22.7071 13.9005 22.5902 13.9199 22.4735ZM14.0273 22.8871C14.0425 22.7806 14.0586 22.6742 14.0758 22.568C14.1052 22.5864 14.1342 22.6051 14.1632 22.6241C14.154 22.7274 14.1457 22.8306 14.1383 22.9339C14.1015 22.9179 14.0645 22.9023 14.0273 22.8871ZM13.8414 22.9967C13.7893 22.977 13.737 22.9581 13.6843 22.9401C13.6552 23.0817 13.6278 23.2236 13.6023 23.3657C13.6658 23.3755 13.7291 23.3864 13.7922 23.3984C13.8069 23.2644 13.8233 23.1304 13.8414 22.9967ZM13.9585 23.433C13.9722 23.309 13.9871 23.1851 14.0034 23.0612C14.0447 23.0785 14.0857 23.0963 14.1265 23.1146C14.1194 23.2327 14.1135 23.3509 14.1087 23.469C14.0589 23.4563 14.0088 23.4443 13.9585 23.433ZM13.7742 23.5683C13.7074 23.5553 13.6404 23.5437 13.5731 23.5334C13.1211 26.2043 13.3095 28.9707 14.157 31.5949L15.7794 36.6187C16.2694 38.1356 17.3256 39.3081 18.6362 39.9762C18.9266 39.8809 19.2068 39.7628 19.4746 39.6241C18.5455 39.0211 17.7743 38.1482 17.2909 37.0561L15.1554 32.2305C13.9426 29.4896 13.4796 26.5021 13.7742 23.5683ZM19.6458 39.5318C18.7079 38.9446 17.9286 38.0787 17.4455 36.9869L15.31 32.1613C14.1117 29.4533 13.6527 26.5022 13.9407 23.6035C13.9949 23.6158 14.049 23.629 14.1027 23.6432C14.0099 26.786 14.781 29.9211 16.369 32.6883L18.9941 37.263C19.3843 37.9428 19.8881 38.5157 20.4676 38.971C20.2111 39.1807 19.9363 39.3686 19.6458 39.5318ZM19.6412 39.7284C19.3891 39.8645 19.1259 39.9826 18.8535 40.0812C19.1031 40.1954 19.3609 40.2918 19.625 40.3694C19.8965 40.3048 20.1596 40.221 20.4134 40.1197C20.1473 40.0085 19.8891 39.8777 19.6412 39.7284ZM20.6355 40.0256C20.3517 39.9167 20.0763 39.7852 19.8125 39.6322C20.0925 39.4688 20.3579 39.2827 20.6063 39.0767C20.8686 39.2705 21.1452 39.441 21.4327 39.5873C21.1807 39.7534 20.9144 39.9002 20.6355 40.0256ZM20.6407 40.2093C20.4206 40.3049 20.1932 40.3877 19.9591 40.4565C20.1839 40.508 20.4124 40.5458 20.6435 40.5696C20.7454 40.5535 20.8474 40.5345 20.9495 40.5127C21.0785 40.4851 21.2056 40.4533 21.3306 40.4176C21.0965 40.3622 20.8661 40.2926 20.6407 40.2093ZM21.6597 40.3126C21.3891 40.2633 21.1226 40.1946 20.8625 40.1072C21.1232 39.9805 21.3726 39.8353 21.6093 39.6735C21.8714 39.796 22.1416 39.8988 22.4178 39.9814C22.1761 40.1088 21.923 40.2198 21.6597 40.3126ZM21.6735 40.4879C21.5561 40.5283 21.4367 40.5652 21.3155 40.5985C21.5556 40.5945 21.7972 40.5751 22.039 40.5399C21.9164 40.5264 21.7946 40.5091 21.6735 40.4879ZM22.6932 40.4047C22.461 40.4053 22.2299 40.3917 22.0012 40.3642C22.2267 40.2711 22.4444 40.1649 22.6532 40.0465C22.886 40.1057 23.1223 40.1507 23.3609 40.1811C23.2402 40.2299 23.117 40.2749 22.9916 40.3159C22.8923 40.3483 22.7929 40.3779 22.6932 40.4047ZM23.3645 40.3627C23.6029 40.3335 23.8412 40.2888 24.0782 40.2282C23.9549 40.2277 23.8318 40.2233 23.7091 40.215C23.5965 40.2676 23.4816 40.3169 23.3645 40.3627ZM24.0221 40.0575C24.2525 40.0608 24.4839 40.0501 24.7148 40.0249C24.8111 39.9879 24.9069 39.948 25.0022 39.9053C25.1227 39.8514 25.2405 39.7937 25.3554 39.7326C25.1149 39.7273 24.8752 39.7075 24.6375 39.6731C24.442 39.8127 24.2367 39.9413 24.0221 40.0575ZM24.8334 39.5268C25.1058 39.5579 25.3807 39.5694 25.6556 39.561C25.8939 39.4151 26.1186 39.2536 26.3287 39.0784C26.0415 39.0554 25.7557 39.0113 25.4741 38.9464C25.2761 39.1542 25.0622 39.3484 24.8334 39.5268ZM25.2837 38.8991C25.0715 39.1142 24.8413 39.3135 24.5945 39.4945C24.2943 39.4473 23.998 39.3764 23.7083 39.282C23.9485 39.0635 24.1696 38.8261 24.37 38.5726C24.6665 38.7072 24.9722 38.8161 25.2837 38.8991ZM25.6074 38.8016C25.9054 38.8651 26.2076 38.9045 26.5111 38.9198C26.7377 38.7139 26.9459 38.4915 27.1346 38.2552C26.8162 38.2054 26.5007 38.1293 26.1917 38.0265C26.0188 38.2997 25.8236 38.5591 25.6074 38.8016ZM26.0274 37.9692C25.8479 38.2484 25.6442 38.5125 25.4181 38.758C25.097 38.6781 24.7817 38.57 24.4763 38.4339C24.6937 38.1416 24.8843 37.8294 25.0452 37.5016C25.3609 37.6899 25.6899 37.8457 26.0274 37.9692ZM26.2831 37.8775C26.6011 37.9807 26.9259 38.055 27.2536 38.1008C27.4529 37.8329 27.6281 37.5487 27.7776 37.2522C27.4291 37.1647 27.0856 37.0444 26.752 36.8903C26.6261 37.2332 26.469 37.5638 26.2831 37.8775ZM26.5985 36.8168C26.4712 37.1665 26.3106 37.5031 26.1192 37.8215C25.7748 37.698 25.4394 37.5399 25.1181 37.3473C25.2944 36.9607 25.43 36.5538 25.5205 36.1335L25.7411 36.2947C26.0164 36.496 26.3034 36.6699 26.5985 36.8168ZM26.8085 36.7291C27.1481 36.887 27.4982 37.0089 27.8536 37.0956C28.0108 36.7588 28.1356 36.4071 28.226 36.0459C27.9172 35.9309 27.6139 35.7883 27.3191 35.6171L27.0825 35.4796C27.0362 35.9072 26.9436 36.326 26.8085 36.7291ZM26.9219 35.3864C26.8806 35.8205 26.7902 36.246 26.6548 36.6548C26.3746 36.5142 26.1022 36.3484 25.8404 36.1571L25.5571 35.9498C25.6346 35.5259 25.6665 35.0893 25.6487 34.6467L26.9219 35.3864ZM27.0998 35.2931L27.4037 35.4696C27.6838 35.6324 27.9719 35.7685 28.2651 35.8789C28.3573 35.4581 28.4029 35.0255 28.3989 34.5894L27.0554 33.9875C27.1192 34.4258 27.1327 34.8633 27.0998 35.2931ZM26.8714 33.9051C26.9428 34.3388 26.9634 34.7723 26.9368 35.1984L25.6369 34.4433C25.6173 34.1793 25.5797 33.9136 25.5235 33.6474L25.4427 33.2652L26.8714 33.9051ZM27.0227 33.7866L28.3942 34.401C28.3763 33.9743 28.3108 33.5454 28.1947 33.1217L26.7071 32.6354L26.8272 33.0071C26.9107 33.2659 26.9756 33.5262 27.0227 33.7866ZM26.5083 32.5704L26.6662 33.0597C26.7352 33.2731 26.791 33.4875 26.8343 33.7022L25.3993 33.0594L25.206 32.1447C25.2131 32.147 25.2203 32.1493 25.2275 32.1517L26.5083 32.5704ZM26.6425 32.4353L28.1367 32.9238C28.0714 32.7148 27.9936 32.5074 27.9029 32.3025L27.6949 31.8323L26.3779 31.5507C26.3703 31.5491 26.3628 31.5474 26.3552 31.5458L26.6425 32.4353ZM26.1637 31.5035L26.4436 32.3703L25.2798 31.9899C25.2416 31.9773 25.2034 31.9647 25.1653 31.9519L25.0057 31.1964C25.3868 31.3121 25.773 31.4146 26.1637 31.5035ZM26.2947 31.3585C26.3341 31.3672 26.3735 31.3758 26.4131 31.3842L27.6098 31.6401L27.2413 30.8074C26.8434 30.7601 26.4486 30.6988 26.0575 30.6239L26.2947 31.3585ZM25.8675 30.5864L26.1027 31.3147C25.719 31.225 25.3398 31.1221 24.9655 31.0062L24.8246 30.3394C25.1689 30.4325 25.5167 30.515 25.8675 30.5864ZM25.9978 30.4389C26.3821 30.5148 26.7701 30.5774 27.1612 30.6262L26.8515 29.9266C26.4951 29.8924 26.1405 29.847 25.7883 29.7905L25.9978 30.4389ZM25.6004 29.7593L25.8074 30.4002C25.4634 30.3281 25.1225 30.2453 24.7851 30.1521L24.6622 29.5703C24.9727 29.6421 25.2855 29.7051 25.6004 29.7593ZM25.7296 29.6085C26.0749 29.6657 26.4227 29.7122 26.7724 29.7477L25.7675 27.4768C25.3199 26.4655 25.1959 25.3478 25.3994 24.2753C25.3911 24.2855 25.3828 24.2956 25.3745 24.3059C24.8771 25.4666 24.8141 26.7739 25.2048 27.9833L25.7296 29.6085ZM25.6407 23.9721C25.3462 25.1106 25.4418 26.3225 25.922 27.4076L26.9658 29.7663C27.3558 29.8013 27.7482 29.8227 28.1422 29.8302L26.4289 26.8447C25.9077 25.9363 25.6653 24.9024 25.7187 23.8707C25.6929 23.9046 25.6668 23.9384 25.6407 23.9721ZM25.9077 23.619C25.7973 24.7036 26.0267 25.8034 26.5755 26.7596L28.3389 29.8328C28.3795 29.8331 28.42 29.8333 28.4606 29.8333H29.6833L27.021 26.1465C26.4481 25.3532 26.1063 24.4251 26.02 23.4647C25.9828 23.5164 25.9454 23.5678 25.9077 23.619ZM26.1742 23.2468C26.2252 24.2484 26.5629 25.2225 27.1579 26.0464L29.8924 29.8333H31.4634C31.3371 29.6549 31.1995 29.4819 31.0504 29.3152L27.5372 25.3897C26.9358 24.7176 26.5178 23.9108 26.3109 23.0472C26.2659 23.114 26.2202 23.1806 26.1742 23.2468ZM26.4407 22.8522C26.6265 23.7468 27.0446 24.5849 27.6629 25.2758L31.1761 29.2014C31.3569 29.4035 31.5214 29.6147 31.6696 29.8333H33.171C32.8593 29.2018 32.4263 28.6178 31.874 28.1174L27.9723 24.5829C27.3657 24.0333 26.898 23.3573 26.5959 22.6108C26.5448 22.6917 26.4931 22.7721 26.4407 22.8522ZM26.5201 22.4125C26.4792 22.4783 26.4379 22.5439 26.3961 22.6092C26.3954 22.6046 26.3947 22.6 26.3939 22.5955C26.4329 22.5247 26.4714 22.4537 26.5094 22.3824C26.5129 22.3924 26.5165 22.4024 26.5201 22.4125ZM26.7075 22.4315C26.9976 23.2 27.467 23.896 28.0855 24.4564L31.9872 27.9909C32.5779 28.5261 33.036 29.1541 33.3592 29.8333H33.7108C34.0341 29.8333 34.3512 29.8062 34.6599 29.7544C34.3034 28.6224 33.597 27.591 32.5689 26.8396L28.3214 23.7346C27.7333 23.3049 27.2445 22.7637 26.8776 22.1486C26.8218 22.2434 26.7652 22.3377 26.7075 22.4315ZM26.7805 21.9789C26.7325 22.0615 26.6839 22.1436 26.6346 22.2255C26.6291 22.2085 26.6235 22.1916 26.6181 22.1747C26.6619 22.0894 26.7051 22.0039 26.7476 21.9181C26.7584 21.9384 26.7694 21.9587 26.7805 21.9789ZM26.9753 21.9801C27.3355 22.6093 27.8257 23.162 28.4208 23.597L32.6683 26.7018C33.7331 27.4801 34.4627 28.5501 34.8276 29.7236C35.1947 29.6506 35.5493 29.5423 35.8875 29.4022C35.5857 27.8162 34.6263 26.3663 33.1273 25.4956L28.5804 22.8544C28.035 22.5375 27.555 22.1299 27.1575 21.6538C27.098 21.7632 27.0373 21.8719 26.9753 21.9801ZM27.0423 21.5108C26.9891 21.6095 26.9349 21.7078 26.8797 21.8055C26.8663 21.7798 26.853 21.754 26.84 21.728C26.8875 21.6287 26.9341 21.529 26.9797 21.4288C27.0003 21.4564 27.0211 21.4837 27.0423 21.5108ZM27.2442 21.4923C27.6373 21.9757 28.117 22.3887 28.665 22.707L33.2118 25.3482C34.7436 26.2379 35.7281 27.715 36.0466 29.3335C36.3515 29.1962 36.6423 29.0327 36.9163 28.8461C36.7351 26.8352 35.5062 24.9798 33.5426 24.1002L28.7462 21.9517C28.2675 21.7373 27.8273 21.4555 27.4367 21.1182C27.3741 21.2437 27.3099 21.3684 27.2442 21.4923ZM27.3057 21.0012C27.2484 21.1169 27.1898 21.2319 27.1297 21.3463C27.106 21.3148 27.0825 21.283 27.0594 21.251C27.1097 21.137 27.1588 21.0224 27.2066 20.9075C27.2392 20.9391 27.2723 20.9704 27.3057 21.0012ZM27.5143 20.9607C27.9006 21.2998 28.3381 21.5826 28.8151 21.7962L33.6114 23.9448C35.6014 24.8362 36.8584 26.701 37.0752 28.7338C37.3214 28.5536 37.5526 28.3541 37.7668 28.1377C37.764 25.7128 36.2269 23.4587 33.8104 22.6688L28.8171 21.0364C28.429 20.9096 28.06 20.7397 27.7157 20.5318C27.6506 20.6756 27.5835 20.8187 27.5143 20.9607ZM27.5708 20.4411C27.5102 20.5755 27.4478 20.7091 27.3837 20.8419C27.3473 20.8078 27.3114 20.773 27.276 20.7377C27.3285 20.6077 27.3793 20.4769 27.4286 20.3456C27.4755 20.3781 27.5229 20.41 27.5708 20.4411ZM27.7855 20.3753C28.1239 20.5816 28.4872 20.7497 28.8694 20.8746L33.8627 22.5069C36.2923 23.3012 37.8585 25.533 37.9333 27.9623C38.1185 27.7588 38.2893 27.5419 38.4441 27.3131C38.676 24.4688 36.7767 21.8262 33.9286 21.2171L28.7931 20.1188C28.5192 20.0603 28.2522 19.9807 27.9941 19.8813C27.9271 20.0471 27.8576 20.2118 27.7855 20.3753ZM27.837 19.8181C27.774 19.9743 27.7086 20.1296 27.6408 20.2839C27.5898 20.2503 27.5393 20.216 27.4895 20.1808C27.5434 20.0321 27.5953 19.8827 27.6452 19.7327C27.7086 19.7624 27.7725 19.7909 27.837 19.8181ZM28.057 19.7233C28.3062 19.819 28.564 19.8958 28.8282 19.9524L33.9637 21.0506C36.7935 21.6557 38.7134 24.2106 38.6299 27.0204C38.7479 26.8212 38.8543 26.6144 38.9483 26.4007C38.9645 26.2981 38.9781 26.1944 38.9891 26.0898C39.3195 22.9269 37.0389 20.0933 33.8952 19.7609L28.6737 19.2088C28.538 19.1944 28.4034 19.1749 28.27 19.1504C28.2024 19.3426 28.1313 19.5337 28.057 19.7233ZM28.1024 19.1168C28.038 19.299 27.9705 19.4802 27.9 19.66C27.8321 19.6314 27.7649 19.6013 27.6984 19.5698C27.7531 19.3996 27.8051 19.2285 27.8545 19.0565C27.9365 19.0785 28.0191 19.0986 28.1024 19.1168ZM28.3263 18.9876C28.447 19.0091 28.5687 19.0265 28.6914 19.0395L33.9129 19.5916C37.0361 19.9219 39.332 22.65 39.1833 25.7668C39.3465 25.2318 39.4343 24.6635 39.4343 24.0747C39.4343 20.8944 36.8718 18.3162 33.7108 18.3162H28.5396C28.4731 18.5415 28.402 18.7654 28.3263 18.9876ZM28.3634 18.3152C28.2993 18.5299 28.2311 18.7431 28.1587 18.9548C28.072 18.9363 27.9859 18.9157 27.9006 18.8928C27.9549 18.6963 28.0057 18.4989 28.053 18.3006C28.156 18.3085 28.2595 18.3134 28.3634 18.3152ZM28.413 18.1458C28.8469 16.6343 29.0727 15.0563 29.0727 13.4549V7.11952C29.0727 4.27355 27.0208 1.90979 24.3241 1.4442C26.173 2.28191 27.5423 4.05825 27.7696 6.23352L28.4278 12.5343C28.6253 14.4243 28.5061 16.3148 28.0921 18.1328C28.1986 18.1405 28.3056 18.1448 28.413 18.1458ZM27.8827 18.2847C27.798 18.2755 27.7137 18.2642 27.6298 18.251C27.5986 18.4271 27.5646 18.6028 27.5279 18.7778C27.5973 18.8021 27.6673 18.825 27.7378 18.8464C27.7894 18.66 27.8376 18.4728 27.8827 18.2847ZM27.6917 19.0102C27.6247 18.9899 27.5581 18.9683 27.4919 18.9454C27.458 19.0999 27.4218 19.2539 27.3835 19.4073C27.4368 19.4372 27.4907 19.466 27.545 19.494C27.5962 19.3335 27.6452 19.1722 27.6917 19.0102ZM27.4918 19.6578C27.4407 19.6318 27.3903 19.6052 27.3402 19.5776C27.3048 19.7135 27.2678 19.849 27.2291 19.9841C27.268 20.0154 27.3074 20.0462 27.3472 20.0765C27.3972 19.9375 27.4454 19.7979 27.4918 19.6578ZM27.2861 20.2431C27.2496 20.2159 27.2134 20.1882 27.1776 20.1601C27.1421 20.2795 27.1052 20.3984 27.0671 20.517C27.0934 20.5465 27.12 20.5757 27.147 20.6046C27.1948 20.4846 27.2411 20.3641 27.2861 20.2431ZM27.0771 20.7774C27.0532 20.7526 27.0296 20.7276 27.0062 20.7024C26.9713 20.8066 26.9354 20.9106 26.8985 21.0143C26.9142 21.0387 26.93 21.0631 26.9462 21.0873C26.9908 20.9845 27.0344 20.8812 27.0771 20.7774ZM26.8655 21.2702C26.8522 21.2513 26.8392 21.2322 26.8263 21.2131C26.793 21.3029 26.7591 21.3924 26.7243 21.4818C26.7315 21.4981 26.7387 21.5144 26.746 21.5307C26.7866 21.4442 26.8264 21.3574 26.8655 21.2702ZM26.6516 21.7288C26.6469 21.7192 26.6423 21.7094 26.6377 21.6997C26.6073 21.7747 26.5764 21.8495 26.545 21.9241C26.5462 21.9287 26.5473 21.9332 26.5485 21.9377C26.5834 21.8683 26.6178 21.7986 26.6516 21.7288ZM26.6305 21.2534C26.6579 21.1807 26.6848 21.1078 26.7112 21.0349C26.7055 21.0256 26.6998 21.0164 26.6942 21.0071C26.6718 21.0848 26.6488 21.1624 26.6253 21.2398C26.6271 21.2443 26.6288 21.2489 26.6305 21.2534ZM26.7576 20.7812C26.7665 20.7968 26.7755 20.8123 26.7846 20.8279C26.8159 20.7377 26.8464 20.6473 26.8761 20.5566C26.861 20.539 26.846 20.5213 26.831 20.5036C26.8073 20.5963 26.7829 20.6888 26.7576 20.7812ZM26.6981 20.3385C26.6794 20.4137 26.6603 20.4888 26.6406 20.5639C26.6385 20.5597 26.6364 20.5553 26.6343 20.5511C26.6496 20.4718 26.6643 20.3924 26.6784 20.3129C26.685 20.3214 26.6916 20.33 26.6981 20.3385ZM26.8822 20.2983C26.9004 20.3211 26.9188 20.3438 26.9374 20.3663C26.9711 20.2593 27.0038 20.152 27.0354 20.0444C27.009 20.0222 26.9828 19.9997 26.9568 19.977C26.933 20.0842 26.9081 20.1914 26.8822 20.2983ZM26.8123 19.8458C26.7922 19.939 26.7713 20.032 26.7495 20.1249C26.739 20.1106 26.7285 20.0961 26.7182 20.0816C26.7336 19.9871 26.7483 19.8926 26.7622 19.798C26.7789 19.8141 26.7956 19.83 26.8123 19.8458ZM26.9981 19.7864C27.0274 19.813 27.057 19.8393 27.0869 19.8652C27.122 19.7407 27.1557 19.6159 27.1878 19.4907C27.1487 19.4674 27.1097 19.4437 27.0711 19.4194C27.0481 19.5419 27.0238 19.6643 26.9981 19.7864ZM26.9176 19.3193C26.8973 19.4297 26.8759 19.5399 26.8535 19.65C26.8328 19.6296 26.8122 19.6092 26.7918 19.5885C26.8065 19.4793 26.8201 19.37 26.8328 19.2606C26.8608 19.2804 26.8891 19.3001 26.9176 19.3193ZM27.104 19.2389C27.146 19.2661 27.1884 19.2926 27.2312 19.3185C27.2665 19.1751 27.2999 19.0312 27.3315 18.887C27.278 18.8665 27.2249 18.8453 27.1722 18.8231C27.1511 18.9619 27.1285 19.1005 27.104 19.2389ZM27.0117 18.7526C26.9926 18.8805 26.9722 19.0081 26.9503 19.1356C26.9178 19.113 26.8858 19.0901 26.8539 19.0667C26.8667 18.9426 26.8782 18.8184 26.8884 18.6941C26.9292 18.7142 26.9703 18.7336 27.0117 18.7526ZM27.1976 18.6492C27.2538 18.6733 27.3104 18.6964 27.3674 18.7186C27.4017 18.5535 27.4336 18.3879 27.4631 18.2219C27.3942 18.2087 27.3256 18.1943 27.2574 18.1784C27.2396 18.3356 27.2197 18.4925 27.1976 18.6492ZM27.0917 18.1372C27.0753 18.284 27.0571 18.4305 27.0369 18.5769C26.9917 18.5556 26.9469 18.5337 26.9024 18.5112C26.9123 18.3711 26.9205 18.2308 26.927 18.0905C26.9816 18.1069 27.0365 18.1225 27.0917 18.1372ZM27.11 17.966C27.3449 15.6485 27.1037 13.2848 26.3744 11.0266L24.4285 5.00125C23.9387 3.48448 22.8825 2.31206 21.5721 1.64398C21.2817 1.73932 21.0016 1.85739 20.7336 1.9961C21.6627 2.59919 22.4336 3.47183 22.9169 4.56382L25.4781 10.3516C26.5398 12.7508 27.0269 15.3391 26.9342 17.9148C26.9924 17.9329 27.0511 17.9499 27.11 17.966ZM26.7668 17.8598C26.8507 15.3259 26.368 12.7809 25.3236 10.4208L22.7624 4.63304C22.2793 3.54148 21.5001 2.67559 20.5625 2.08846C20.2721 2.25167 19.9971 2.43961 19.7407 2.64943C20.3198 3.10467 20.8235 3.67727 21.2135 4.35696L24.3619 9.84361C25.7678 12.2936 26.5335 15.0319 26.6261 17.8087C26.6728 17.8264 26.7197 17.8434 26.7668 17.8598ZM26.7601 18.0373C26.7169 18.0228 26.674 18.0077 26.6313 17.9921C26.6342 18.1167 26.6356 18.2415 26.6357 18.3662C26.6698 18.3861 26.7041 18.4055 26.7387 18.4247C26.7473 18.2956 26.7544 18.1665 26.7601 18.0373ZM26.7254 18.6107C26.695 18.5946 26.6648 18.5781 26.6348 18.5613C26.6336 18.6714 26.6314 18.7815 26.6282 18.8916C26.6507 18.91 26.6732 18.9283 26.696 18.9463C26.7069 18.8345 26.7167 18.7226 26.7254 18.6107ZM26.6754 19.1453C26.657 19.1314 26.6387 19.1173 26.6206 19.1031C26.6165 19.1988 26.6117 19.2945 26.6061 19.3902C26.6179 19.4035 26.6299 19.4168 26.6418 19.43C26.6538 19.3353 26.665 19.2403 26.6754 19.1453ZM26.6128 19.6478C26.6055 19.6401 26.5981 19.6323 26.5907 19.6244C26.5849 19.7049 26.5784 19.7854 26.5715 19.8657C26.574 19.8698 26.5766 19.8737 26.5792 19.8778C26.591 19.8011 26.6022 19.7245 26.6128 19.6478ZM26.4468 19.2022C26.4505 19.1245 26.4537 19.047 26.4563 18.9694C26.4481 18.9624 26.4399 18.9553 26.4317 18.9484C26.4342 19.0291 26.4362 19.11 26.4377 19.1908C26.4407 19.1947 26.4437 19.1984 26.4468 19.2022ZM26.4226 18.7137C26.4358 18.7258 26.4492 18.7378 26.4625 18.7498C26.4646 18.6543 26.4659 18.5587 26.4664 18.4632C26.4466 18.4512 26.4268 18.4391 26.4072 18.4268C26.4132 18.5224 26.4183 18.618 26.4226 18.7137ZM26.2301 18.3111C26.2354 18.3885 26.2403 18.4659 26.2446 18.5434C26.2412 18.54 26.2378 18.5365 26.2344 18.5331C26.2246 18.4529 26.2142 18.3728 26.2033 18.2927C26.2122 18.2989 26.2211 18.305 26.2301 18.3111ZM26.3928 18.2156C26.4171 18.2317 26.4416 18.2475 26.4661 18.2631C26.4654 18.1507 26.4634 18.0384 26.4604 17.9263C26.4286 17.9133 26.3968 17.9 26.3651 17.8865C26.3754 17.9961 26.3846 18.1058 26.3928 18.2156ZM26.3458 17.6924C26.3817 17.7086 26.418 17.7243 26.4544 17.7397C26.3516 15.0163 25.5947 12.3324 24.2155 9.92876L21.067 4.44206C20.6818 3.77078 20.1825 3.20705 19.6081 2.76135C19.3281 3.00478 19.072 3.27506 18.8434 3.56819C19.0787 3.79943 19.2979 4.05368 19.4977 4.33044L23.199 9.45592C24.9623 11.8976 26.0348 14.7423 26.3458 17.6924ZM18.7201 3.45054C18.9452 3.16343 19.1961 2.89777 19.4694 2.65711C19.1987 2.46 18.9126 2.28823 18.615 2.14284C18.343 2.33574 18.0891 2.55159 17.8559 2.78729C18.1605 2.97883 18.4501 3.20016 18.7201 3.45054ZM18.6168 3.58627C18.3424 3.3304 18.0469 3.10555 17.7356 2.91254C17.4825 3.18407 17.2558 3.4798 17.059 3.79536C17.3169 4.00052 17.5612 4.23025 17.7887 4.48439L17.9725 4.68978C18.148 4.29743 18.3646 3.92772 18.6168 3.58627ZM18.7756 2.03298C19.0631 2.17934 19.3397 2.34988 19.602 2.54371C19.8504 2.33759 20.1158 2.15154 20.3959 1.98803C20.132 1.83504 19.8567 1.70353 19.5728 1.59462C19.294 1.71997 19.0276 1.86686 18.7756 2.03298ZM19.7949 1.50042C20.0611 1.61164 20.3192 1.74242 20.5671 1.89186C20.8193 1.75573 21.0825 1.63752 21.3549 1.53895C21.1053 1.42465 20.8474 1.32821 20.5833 1.25069C20.3119 1.31536 20.0487 1.39914 19.7949 1.50042ZM24.8579 16.3455C23.3955 13.4285 21.1116 10.9765 18.2569 9.31825L17.6257 8.95164V9.64591C20.6554 11.1194 23.1656 13.4581 24.8579 16.3455ZM24.3696 15.8728C22.7207 13.294 20.3947 11.1987 17.6257 9.83518V10.4311C20.3077 11.6309 22.6299 13.5087 24.3696 15.8728ZM17.4565 10.3565V9.75306C17.3295 9.69229 17.2017 9.63308 17.073 9.57543L16.4073 9.27728L16.4794 9.9678C16.8099 10.0875 17.1357 10.2172 17.4565 10.3565ZM16.4991 10.1561C16.823 10.2751 17.1422 10.4039 17.4565 10.5421V11.0689C17.1616 10.9539 16.8629 10.847 16.5611 10.7485L16.4991 10.1561ZM16.3028 9.90493L16.2288 9.19727L15.0007 8.64717L15.1887 9.53694L15.9742 9.79375C16.0843 9.82977 16.1937 9.8668 16.3028 9.90493ZM15.2293 9.72923L15.922 9.95561C16.0562 9.99951 16.1896 10.045 16.3224 10.0922L16.3851 10.6921C16.0515 10.5873 15.7139 10.4925 15.3728 10.4083L15.2293 9.72923ZM15.0029 9.47626L14.8096 8.56156L13.3738 7.91843C13.417 8.1329 13.4729 8.34709 13.5417 8.56019L13.7 9.05026L15.0029 9.47626ZM13.7646 9.25043L15.0435 9.66846L15.1905 10.3643C15.0782 10.3379 14.9655 10.3125 14.8524 10.2884L14.044 10.1155L13.7646 9.25043ZM13.5011 8.98527L13.3808 8.61279C13.2973 8.35433 13.2325 8.09422 13.1855 7.83401L11.8137 7.21953C11.8316 7.64622 11.8972 8.07516 12.0132 8.49887L13.5011 8.98527ZM12.0713 8.69684L13.5657 9.18536L13.8529 10.0746L12.5132 9.78807L12.3049 9.31743C12.2143 9.11276 12.1366 8.90554 12.0713 8.69684ZM11.8217 8.43627C11.7127 8.00715 11.6537 7.57344 11.6417 7.14249L11.3204 6.99857C11.0251 6.86628 10.7246 6.76119 10.4217 6.68222C10.3739 7.11049 10.3734 7.54549 10.4227 7.97892L11.8217 8.43627ZM10.4471 8.16589L11.8751 8.63268C11.9489 8.88656 12.0405 9.13834 12.1503 9.38672L12.3087 9.74435L10.7784 9.41706C10.6189 9.00791 10.5091 8.58823 10.4471 8.16589ZM10.2463 7.92127C10.2033 7.49325 10.2072 7.06422 10.256 6.64168C9.89104 6.55817 9.52337 6.5121 9.15771 6.50161C9.07354 6.86399 9.02416 7.23406 9.01041 7.60626C9.33599 7.65419 9.66202 7.73026 9.98551 7.83603L10.2463 7.92127ZM9.00667 7.77783C9.31604 7.82448 9.62576 7.89735 9.93322 7.99789L10.268 8.10733C10.3247 8.53462 10.4284 8.9597 10.5814 9.37499L9.14231 9.06721C9.0483 8.64139 9.00357 8.20869 9.00667 7.77783ZM8.84197 7.58398C8.85636 7.2187 8.90419 6.85548 8.98462 6.4993C8.65039 6.49995 8.31843 6.53022 7.99267 6.58867C7.88536 6.90544 7.80611 7.23008 7.755 7.5586C8.11347 7.53339 8.47713 7.54109 8.84197 7.58398ZM7.73086 7.73109C8.09561 7.70304 8.4661 7.71019 8.83769 7.75492C8.83304 8.18019 8.87376 8.6073 8.96094 9.02844L8.69312 8.97116C8.36025 8.89995 8.02802 8.85861 7.69916 8.84523C7.67411 8.47357 7.68477 8.10036 7.73086 7.73109ZM7.58164 7.57344C7.62911 7.2531 7.70262 6.93621 7.80201 6.62624C7.50421 6.69022 7.21206 6.77787 6.92869 6.8881C6.80485 7.1689 6.70462 7.45732 6.62784 7.75024C6.93887 7.66546 7.25779 7.60598 7.58164 7.57344ZM6.58152 7.94006C6.8994 7.84776 7.22628 7.78278 7.55851 7.74694C7.51551 8.10971 7.50567 8.47596 7.52926 8.84074C7.16214 8.83652 6.79971 8.86704 6.44594 8.92982C6.46257 8.59767 6.5077 8.26644 6.58152 7.94006ZM6.43982 9.10397C6.43232 9.47599 6.46049 9.84828 6.52401 10.2153C6.85253 10.194 7.18729 10.2002 7.52571 10.236L7.79764 10.2648C7.66718 9.85516 7.58237 9.43465 7.54275 9.01121C7.16861 9.0059 6.79955 9.0377 6.43982 9.10397ZM7.71319 9.01616C7.75491 9.4451 7.84437 9.87065 7.98211 10.2843L9.44512 10.439C9.2499 10.042 9.1025 9.63015 9.00184 9.2112L8.65795 9.1376C8.34166 9.06996 8.02592 9.03009 7.71319 9.01616ZM9.18595 9.25052C9.29162 9.66406 9.4443 10.07 9.64544 10.4602L11.2016 10.6247L11.007 10.2857C10.8719 10.0503 10.7547 9.80942 10.655 9.56471L9.18595 9.25052ZM10.8567 9.60788C10.9433 9.8086 11.0421 10.0065 11.1535 10.2006L11.4095 10.6467L12.7717 10.7908L12.3936 9.93655L10.8567 9.60788ZM12.5983 9.98027L12.9659 10.8113L13.7882 10.8982C13.9029 10.9104 14.0174 10.9237 14.1318 10.9381L13.9132 10.2616L12.5983 9.98027ZM14.1044 10.3023L14.3175 10.9627C14.6657 11.0106 15.0113 11.0694 15.3541 11.1386L15.2294 10.5484C15.0926 10.5155 14.9552 10.4844 14.8173 10.4548L14.1044 10.3023ZM15.4119 10.5934L15.5349 11.1761C15.8456 11.2423 16.1537 11.3173 16.459 11.4006L16.4043 10.8766C16.0772 10.7723 15.7464 10.6777 15.4119 10.5934ZM16.5804 10.9339L16.6342 11.4495C16.9108 11.5282 17.185 11.6139 17.4565 11.7064V11.2516C17.1679 11.1378 16.8758 11.0318 16.5804 10.9339ZM17.6257 11.3194V11.765C19.6933 12.4939 21.6053 13.6203 23.2521 15.0845C21.6508 13.4605 19.7365 12.1787 17.6257 11.3194ZM22.6392 14.7839C21.1419 13.5542 19.4453 12.5941 17.6257 11.9455V12.3235C19.4158 12.8585 21.1108 13.6886 22.6392 14.7839ZM17.4565 12.2739V11.8862C17.1913 11.7948 16.9234 11.71 16.6533 11.632L16.6996 12.0751C16.9536 12.1355 17.2059 12.2019 17.4565 12.2739ZM16.7184 12.2546C16.9661 12.3144 17.2121 12.3799 17.4565 12.451V13.4549C17.4565 14.6076 17.0774 15.7209 16.3888 16.6262C16.8062 15.7397 16.9787 14.7475 16.8752 13.7559L16.7184 12.2546ZM16.5252 12.0346L16.478 11.5823C16.1792 11.4994 15.8776 11.4248 15.5735 11.3585L15.6806 11.8655C15.9639 11.9147 16.2455 11.9711 16.5252 12.0346ZM15.7185 12.0449C15.9953 12.0942 16.2705 12.1503 16.5439 12.2134L16.7069 13.7737C16.8267 14.9202 16.5652 16.0675 15.9741 17.0403C16.2973 16.1147 16.366 15.1097 16.1599 14.1342L15.7185 12.0449ZM15.5013 11.8353L15.3925 11.3201C15.0562 11.2507 14.7172 11.1915 14.3757 11.1427L14.5587 11.7092C14.8746 11.7425 15.1889 11.7846 15.5013 11.8353ZM14.616 11.8866C14.9253 11.9205 15.2331 11.9631 15.539 12.0141L15.9944 14.1696C16.2316 15.2921 16.0931 16.4552 15.6115 17.4815C15.61 17.4831 15.6085 17.4849 15.6068 17.4865C15.8298 16.5346 15.7929 15.5311 15.4876 14.5856L14.616 11.8866ZM14.3749 11.6909L14.1896 11.1171C14.0502 11.0989 13.9106 11.0823 13.7705 11.0675L13.0454 10.9908L13.3261 11.6251C13.6772 11.6362 14.0269 11.6582 14.3749 11.6909ZM13.4025 11.7979C13.7472 11.8105 14.0904 11.8338 14.4318 11.8674L15.3267 14.6382C15.6555 15.6561 15.6628 16.7435 15.3604 17.7544C15.3415 17.7753 15.3228 17.7963 15.304 17.8174C15.3926 16.8984 15.2459 15.9634 14.8661 15.1052L13.4025 11.7979ZM13.1387 11.6202L12.8511 10.9703L11.514 10.8289L11.9661 11.6166H12.7932C12.9085 11.6166 13.0237 11.6178 13.1387 11.6202ZM12.0638 11.7868H12.7932C12.9339 11.7868 13.0745 11.7886 13.2149 11.7922L14.7116 15.1744C15.1127 16.081 15.2454 17.0759 15.1066 18.0427C15.0757 18.0786 15.045 18.1145 15.0145 18.1506C14.978 17.2916 14.7372 16.4456 14.302 15.6873L12.0638 11.7868ZM11.7707 11.6166L11.3061 10.8069L9.7431 10.6416C9.85013 10.8322 9.96902 11.0187 10.1 11.2L10.4008 11.6166H11.7707ZM10.5238 11.7868H11.8685L14.1555 15.7723C14.609 16.5626 14.8444 17.4511 14.8502 18.3479C14.8103 18.3965 14.7706 18.4454 14.7313 18.4943C14.5859 17.7184 14.2714 16.9765 13.8013 16.3255L10.5238 11.7868ZM10.1917 11.6166L9.96319 11.3001C9.80431 11.0801 9.66266 10.8528 9.53804 10.6199L8.04451 10.462C8.19254 10.8622 8.38667 11.2498 8.62716 11.6166H10.1917ZM8.74313 11.7868H10.3146L13.6644 16.4255C14.1492 17.0969 14.4632 17.868 14.5904 18.6725C14.5433 18.7329 14.4964 18.7937 14.4502 18.8546C14.2181 18.1806 13.8532 17.5532 13.3696 17.0128L9.15616 12.3047C9.00704 12.1381 8.86939 11.9651 8.74313 11.7868ZM8.42575 11.6166C8.19035 11.2424 8.00096 10.8483 7.8573 10.4422L7.50804 10.4053C7.18638 10.3713 6.86822 10.3648 6.55577 10.3838C6.64175 10.806 6.77495 11.2198 6.95489 11.6166H8.42575ZM7.03546 11.7868H8.53688C8.6851 12.0054 8.84962 12.2165 9.03045 12.4186L13.2439 17.1268C13.7382 17.6791 14.1045 18.3254 14.3265 19.0195C14.2731 19.0917 14.2202 19.1643 14.168 19.2373C13.8762 18.6793 13.4866 18.1719 13.012 17.7419L8.33246 13.5026C7.78005 13.0023 7.34716 12.4183 7.03546 11.7868ZM14.2539 19.4089C14.262 19.4259 14.2701 19.4429 14.278 19.46C14.3177 19.3946 14.3578 19.3294 14.3983 19.2644C14.3947 19.2507 14.3909 19.237 14.3872 19.2233C14.3423 19.2849 14.2979 19.3468 14.2539 19.4089ZM14.5138 19.0519C14.5159 19.0587 14.5179 19.0656 14.52 19.0725C14.554 19.0196 14.5883 18.9669 14.6229 18.9144C14.6227 18.9125 14.6225 18.9105 14.6222 18.9085C14.5859 18.9561 14.5497 19.0039 14.5138 19.0519ZM14.4545 19.4958C14.4234 19.5469 14.3925 19.5981 14.3618 19.6494C14.3646 19.656 14.3673 19.6625 14.3701 19.6691C14.3983 19.6131 14.4269 19.5572 14.4558 19.5015C14.4553 19.4996 14.455 19.4978 14.4545 19.4958ZM14.4113 21.9202C14.4034 21.9797 14.3959 22.0394 14.3886 22.099C14.3937 22.1037 14.3988 22.1085 14.4038 22.1134C14.407 22.0504 14.4105 21.9874 14.4144 21.9245C14.4134 21.923 14.4124 21.9216 14.4113 21.9202ZM14.3939 22.3408C14.384 22.3309 14.3741 22.321 14.3642 22.3112C14.3559 22.387 14.3481 22.463 14.3409 22.5389C14.3562 22.5495 14.3715 22.5601 14.3868 22.5708C14.3887 22.4941 14.3909 22.4175 14.3939 22.3408ZM14.5536 22.6926C14.5546 22.6327 14.5559 22.5728 14.5576 22.5129C14.5587 22.5142 14.5599 22.5154 14.5611 22.5167C14.5638 22.5796 14.5668 22.6425 14.5701 22.7053C14.5647 22.701 14.5591 22.6968 14.5536 22.6926ZM14.3831 22.7772C14.3633 22.7627 14.3435 22.7483 14.3234 22.734C14.3158 22.8256 14.309 22.9172 14.3028 23.0087C14.3293 23.0214 14.3558 23.0342 14.3821 23.0473C14.3817 22.9573 14.3821 22.8673 14.3831 22.7772ZM14.5518 23.1353C14.5511 23.059 14.5509 22.9826 14.5513 22.9062C14.5622 22.9149 14.573 22.9237 14.5839 22.9325C14.589 23.0091 14.5946 23.0856 14.6007 23.1622C14.5845 23.1531 14.5682 23.1442 14.5518 23.1353ZM14.3839 23.2388C14.3532 23.2229 14.3224 23.2073 14.2914 23.1921C14.2854 23.2996 14.2803 23.4071 14.2763 23.5147C14.3148 23.5258 14.3531 23.5374 14.3914 23.5495C14.3879 23.4459 14.3855 23.3423 14.3839 23.2388ZM14.5627 23.6065C14.5593 23.5148 14.5566 23.423 14.5547 23.3312C14.5761 23.3433 14.5974 23.3555 14.6186 23.3678C14.6269 23.4575 14.6359 23.5471 14.6456 23.6365C14.618 23.6263 14.5904 23.6163 14.5627 23.6065ZM14.3983 23.7303C14.356 23.7165 14.3134 23.7031 14.2706 23.6904C14.1868 26.7877 14.9505 29.8759 16.5155 32.6032L19.1406 37.1778C19.526 37.8494 20.0255 38.4133 20.6002 38.8591C20.88 38.6158 21.1361 38.3457 21.3646 38.0527C21.1289 37.8213 20.9094 37.5667 20.7092 37.2895L17.6232 33.016C15.6517 30.2859 14.5437 27.052 14.3983 23.7303ZM21.4679 37.9163C21.2445 37.6953 21.0363 37.4529 20.8462 37.1896L17.7601 32.916C15.8215 30.2316 14.7263 27.055 14.5704 23.7901C14.6028 23.802 14.6351 23.8142 14.6672 23.8267C15.0826 27.2955 16.5498 30.5786 18.9047 33.21L22.1115 36.7932C21.9387 37.1932 21.7221 37.5696 21.4679 37.9163ZM21.4879 38.1704C21.2628 38.4573 21.012 38.7228 20.7389 38.9633C21.0097 39.1604 21.2958 39.3321 21.5934 39.4774C21.8652 39.2847 22.119 39.069 22.3523 38.8335C22.0476 38.642 21.7579 38.4207 21.4879 38.1704ZM22.4726 38.7082C22.1612 38.5152 21.8658 38.2905 21.5912 38.0347C21.8435 37.6935 22.06 37.324 22.2356 36.9319L22.4178 37.1356C22.6457 37.3902 22.8905 37.6204 23.1492 37.8259C22.9523 38.1413 22.7257 38.4368 22.4726 38.7082ZM22.5012 38.924C22.2756 39.155 22.031 39.3678 21.7696 39.5598C22.0479 39.6842 22.3354 39.7859 22.629 39.8644C22.8933 39.7105 23.1429 39.5364 23.3762 39.3448C23.075 39.2296 22.7822 39.0891 22.5012 38.924ZM23.5246 39.2187C23.2135 39.1054 22.9111 38.9647 22.6214 38.7972C22.868 38.5293 23.09 38.2389 23.284 37.9299C23.5785 38.1504 23.8895 38.3399 24.2124 38.4983C24.0049 38.7571 23.7749 38.9983 23.5246 39.2187ZM24.319 38.3611C24.5425 38.0646 24.7373 37.7467 24.9002 37.4124C24.6217 37.2352 24.3543 37.0321 24.1012 36.8028L23.8989 36.6195C23.7651 37.0279 23.5881 37.4181 23.3726 37.784C23.6722 38.0096 23.9894 38.202 24.319 38.3611ZM23.2376 37.6793C23.4545 37.3077 23.6308 36.9106 23.7611 36.4946L22.6681 35.5045C22.5941 35.9411 22.4726 36.3615 22.3093 36.7599L22.5435 37.0216C22.7601 37.2637 22.9925 37.4829 23.2376 37.6793ZM22.1833 36.6192C22.3395 36.2221 22.4531 35.8035 22.5184 35.3689L20.1995 33.2682C17.4689 30.7945 15.6269 27.5128 14.9143 23.9305C14.8919 23.9204 14.8694 23.9104 14.8468 23.9006C15.273 27.3 16.7203 30.5148 19.0304 33.0961L22.1833 36.6192ZM14.8236 23.7062C14.8408 23.7133 14.8581 23.7205 14.8752 23.7278C14.8612 23.6524 14.8476 23.5769 14.8346 23.5013C14.8228 23.4936 14.811 23.486 14.7991 23.4784C14.8068 23.5544 14.8149 23.6303 14.8236 23.7062ZM14.7792 23.2657C14.7853 23.2694 14.7913 23.2731 14.7973 23.2767C14.7875 23.2147 14.7779 23.1524 14.7687 23.0901C14.7674 23.0889 14.7659 23.0876 14.7645 23.0864C14.7691 23.1462 14.774 23.206 14.7792 23.2657ZM15.0303 23.6353C15.041 23.6943 15.0521 23.7532 15.0635 23.8121C15.07 23.8151 15.0764 23.8182 15.0829 23.8212C15.0666 23.7606 15.0507 23.6997 15.0351 23.6388C15.0334 23.6377 15.0318 23.6365 15.0303 23.6353ZM15.1432 24.0406C15.1306 24.0341 15.1181 24.0277 15.1054 24.0214C15.8285 27.5195 17.641 30.7214 20.3127 33.1417L22.5455 35.1644C22.5703 34.9465 22.5831 34.725 22.5831 34.5004V33.9863L21.4935 33.1899C18.4026 30.9304 16.1763 27.7009 15.1432 24.0406ZM22.5831 33.7759L21.593 33.0521C18.5778 30.848 16.3936 27.7116 15.3517 24.1533C15.3535 24.1543 15.3552 24.1553 15.3569 24.1563C16.7038 27.7894 19.2469 30.8681 22.5831 32.8643V33.7759ZM22.7523 34.11V34.5004C22.7523 34.7727 22.734 35.0406 22.6987 35.3032L23.8144 36.3139C23.9285 35.9026 23.998 35.4743 24.0179 35.0351L22.7523 34.11ZM24.0235 34.8288L22.7523 33.8996V32.9642C22.7589 32.9681 22.7656 32.972 22.7723 32.9759L23.9385 33.6533L23.9919 34.1648C24.0152 34.388 24.0256 34.6096 24.0235 34.8288ZM24.1808 35.1542C24.1526 35.5962 24.0754 36.0271 23.9543 36.4407L24.2144 36.6763C24.4549 36.8941 24.7088 37.0878 24.973 37.2573C25.1502 36.8649 25.2842 36.4514 25.3706 36.0239L24.1808 35.1542ZM25.4048 35.8386L24.1903 34.9508C24.1981 34.686 24.1885 34.4177 24.1602 34.1469L24.1196 33.7585L25.4742 34.5453C25.5001 34.9842 25.4755 35.4175 25.4048 35.8386ZM25.4584 34.3396C25.4377 34.1214 25.4044 33.9022 25.358 33.6828L25.2517 33.1796L24.0215 32.6285C24.0145 32.6254 24.0076 32.6223 24.0006 32.6192L24.0978 33.5493L25.4584 34.3396ZM23.9167 33.444L23.8219 32.5376C23.458 32.3688 23.1012 32.1878 22.7523 31.9949V32.7672C22.7871 32.7877 22.8219 32.8081 22.8568 32.8285L23.9167 33.444ZM22.5831 32.6659V31.9001C19.6133 30.214 17.2159 27.6651 15.7062 24.5879C17.0687 27.9399 19.4734 30.7799 22.5831 32.6659ZM16.1242 25.0325C17.6121 27.8181 19.8496 30.1317 22.5831 31.7044V31.0307C19.951 29.6404 17.72 27.5739 16.1242 25.0325ZM22.7523 31.1188V31.8004C23.0945 31.9921 23.4444 32.1723 23.8013 32.3403L23.7218 31.5788C23.3932 31.4354 23.0699 31.282 22.7523 31.1188ZM23.7015 31.3841C23.3797 31.2416 23.0633 31.0893 22.7523 30.9274V30.3326C23.0413 30.4679 23.3345 30.595 23.6314 30.7139L23.7015 31.3841ZM23.8999 31.6552L23.9802 32.4232C24.0168 32.44 24.0535 32.4566 24.0903 32.4731L25.2082 32.9739L25.0199 32.0823C24.6405 31.9528 24.267 31.8103 23.8999 31.6552ZM24.9789 31.8883C24.6065 31.7587 24.24 31.6164 23.8797 31.4618L23.8088 30.7837C24.1416 30.9127 24.479 31.0312 24.8206 31.1391L24.9789 31.8883ZM24.7802 30.9477L24.641 30.2885C24.3333 30.2015 24.0286 30.1059 23.7272 30.0019L23.7889 30.5934C24.115 30.7217 24.4455 30.8398 24.7802 30.9477ZM23.6115 30.5224L23.5505 29.9398C23.2817 29.8437 23.0155 29.7409 22.7523 29.6313V30.1447C23.0347 30.2785 23.3212 30.4044 23.6115 30.5224ZM22.5831 30.0635V29.5599C20.528 28.6792 18.6548 27.3943 17.0801 25.7686C18.6003 27.5763 20.4772 29.0373 22.5831 30.0635ZM17.611 26.0586C19.0639 27.4588 20.7496 28.5796 22.5831 29.3748V29.2182C22.5831 29.1283 22.5854 29.0386 22.5897 28.9493C20.7888 28.2811 19.1032 27.3067 17.611 26.0586ZM22.7564 29.01C22.7536 29.0792 22.7523 29.1486 22.7523 29.2182V29.447C23.0091 29.5551 23.2687 29.6567 23.531 29.752L23.4787 29.2512C23.2361 29.1762 22.9952 29.0958 22.7564 29.01ZM23.4594 29.067C23.2267 28.994 22.9956 28.9159 22.7664 28.8329C22.8517 27.6725 23.3206 26.5723 24.1 25.7094C23.5603 26.676 23.3264 27.7941 23.4431 28.9114L23.4594 29.067ZM23.6543 29.3044L23.7077 29.815C24.0024 29.9183 24.3004 30.0134 24.6012 30.1002L24.4801 29.5272C24.2028 29.4599 23.9274 29.3855 23.6543 29.3044ZM24.4411 29.3424C24.1705 29.2754 23.9017 29.2015 23.6352 29.1211L23.6114 28.8935C23.4763 27.6005 23.8261 26.3064 24.5869 25.2628C24.1507 26.2808 24.0343 27.4171 24.2665 28.5158L24.4411 29.3424ZM24.6233 29.3865C24.9271 29.4582 25.2332 29.5214 25.5413 29.5762L25.0439 28.0359C24.699 26.968 24.6965 25.826 25.0243 24.768C24.3766 25.8857 24.1633 27.209 24.4319 28.4804L24.6233 29.3865ZM24.4863 16.5522C22.5387 14.6531 20.1809 13.2732 17.6257 12.5011V13.4549C17.6257 14.8839 17.0614 16.2542 16.0572 17.2646C16.0331 17.2889 16.0091 17.3132 15.9851 17.3376C15.8995 17.4651 15.8081 17.5892 15.7111 17.7097C15.6895 17.7365 15.668 17.7634 15.6466 17.7903C15.5747 17.9259 15.4969 18.0588 15.4131 18.1887C15.3941 18.2181 15.3752 18.2474 15.3565 18.2769C15.2992 18.4189 15.2357 18.5589 15.166 18.6964C15.1504 18.7272 15.1349 18.7579 15.1195 18.7888C15.0773 18.9365 15.0285 19.0827 14.9734 19.2273C14.9611 19.2596 14.9488 19.2919 14.9367 19.3243C14.91 19.4755 14.8768 19.6261 14.837 19.7756C14.8279 19.8093 14.8191 19.843 14.8104 19.8767C14.7995 20.0296 14.7821 20.1826 14.7581 20.3352C14.7526 20.3696 14.7473 20.404 14.7421 20.4385C14.7471 20.5917 14.7458 20.7456 14.7377 20.8999C14.7359 20.9342 14.7343 20.9686 14.7326 21.003C14.7537 21.1553 14.7684 21.309 14.7765 21.4637C14.7782 21.4977 14.7801 21.5316 14.782 21.5655C14.8189 21.7152 14.8496 21.8669 14.8738 22.0204C14.879 22.054 14.8844 22.0875 14.8899 22.1211C14.9422 22.266 14.9884 22.4137 15.0283 22.5637C15.0373 22.5971 15.0462 22.6305 15.0553 22.6637C15.1221 22.8019 15.1831 22.9434 15.2382 23.0879C15.2507 23.1205 15.2633 23.1531 15.2759 23.1856C15.3563 23.3157 15.4315 23.4496 15.5011 23.5871C15.5166 23.6176 15.5321 23.648 15.5478 23.6783C15.6418 23.7998 15.731 23.9257 15.815 24.0559C15.8336 24.0846 15.8522 24.1132 15.8709 24.1418C15.977 24.2527 16.0788 24.3685 16.1758 24.489C16.1971 24.5156 16.2185 24.542 16.24 24.5684C16.3573 24.6676 16.4706 24.7721 16.5797 24.8819C18.3025 26.6153 20.3611 27.9334 22.6015 28.7721C22.7059 27.5065 23.2523 26.3132 24.1515 25.4084C24.3641 25.1946 24.5705 24.9755 24.7703 24.7517C24.9014 24.5835 25.029 24.4131 25.1533 24.2407C25.2658 24.0604 25.3748 23.8782 25.4801 23.6943C25.5744 23.5008 25.6649 23.3059 25.7515 23.1096C25.8247 22.9086 25.8939 22.7065 25.9592 22.5036C26.011 22.2967 26.0587 22.0891 26.1024 21.881C26.1326 21.6689 26.1586 21.4567 26.1806 21.2443C26.1885 21.0288 26.1923 20.8136 26.1922 20.5989C26.1777 20.384 26.1591 20.1698 26.1365 19.9565C26.0999 19.7453 26.0593 19.5353 26.015 19.3265C25.957 19.1219 25.8954 18.9188 25.8301 18.7173C25.7512 18.5195 25.6686 18.3237 25.5826 18.1298C25.4821 17.9385 25.378 17.7494 25.2705 17.5627C25.1519 17.385 25.0301 17.2099 24.9053 17.0375C24.7684 16.8728 24.6288 16.7109 24.4863 16.5522ZM16.5811 25.4232C18.1173 27.6943 20.1791 29.5521 22.5831 30.8381V30.2524C20.2516 29.1302 18.1947 27.4816 16.5811 25.4232ZM23.8294 15.4467C22.174 13.3732 20.0498 11.7151 17.6257 10.6175V11.1359C19.9879 12.0864 22.1089 13.56 23.8294 15.4467ZM23.5607 39.4119C23.8339 39.5062 24.1134 39.58 24.3966 39.633C24.1695 39.7852 23.9293 39.9221 23.6773 40.0421C23.403 40.0216 23.1309 39.9812 22.8632 39.9217C23.1093 39.7683 23.3422 39.5977 23.5607 39.4119ZM6.43939 7.80505C6.16325 7.89038 5.89401 7.99587 5.63388 8.12034C5.72883 7.86307 5.84304 7.61029 5.97687 7.3642C6.21075 7.21861 6.45442 7.09036 6.70577 6.98023C6.59631 7.24981 6.50756 7.52551 6.43939 7.80505ZM38.8049 27.057C38.7427 27.1641 38.6774 27.2691 38.609 27.3718C38.5979 27.4962 38.5829 27.6209 38.5637 27.7458C38.6578 27.5236 38.7386 27.2936 38.8049 27.057ZM38.2642 28.3516C38.291 28.2513 38.3153 28.1498 38.337 28.047C38.3644 27.9173 38.3873 27.7876 38.4056 27.6582C38.2601 27.851 38.1032 28.0345 37.9357 28.2077C37.9331 28.4488 37.9158 28.6916 37.8831 28.9347C38.0212 28.749 38.1485 28.5543 38.2642 28.3516ZM37.668 29.2063C37.7197 28.9306 37.7507 28.6545 37.762 28.3801C37.5528 28.5793 37.3293 28.7633 37.0929 28.9303C37.1139 29.2173 37.1142 29.5072 37.0929 29.7977C37.298 29.6149 37.4903 29.4173 37.668 29.2063ZM37.0699 30.0419C37.2542 29.8874 37.4292 29.7216 37.5937 29.5455C37.562 29.6722 37.5259 29.7988 37.4851 29.925C37.4528 30.0249 37.4181 30.1234 37.381 30.2204C37.2452 30.4095 37.0985 30.5894 36.9421 30.7592C36.9999 30.521 37.0423 30.2815 37.0699 30.0419ZM36.9092 29.9546C36.9408 29.649 36.9475 29.3435 36.9306 29.041C36.6608 29.2183 36.3758 29.3741 36.0778 29.5057C36.131 29.8251 36.1584 30.1494 36.1591 30.4751C36.4228 30.3217 36.6736 30.1475 36.9092 29.9546ZM36.1563 30.6723C36.4088 30.5311 36.6505 30.3715 36.8793 30.1953C36.8395 30.4669 36.7801 30.7381 36.7001 31.0069C36.5013 31.1982 36.2894 31.3747 36.0662 31.5351C36.1176 31.2484 36.1474 30.9601 36.1563 30.6723ZM35.9894 30.5701C35.9942 30.2354 35.9698 29.9021 35.9175 29.5737C35.5843 29.7092 35.2361 29.8148 34.876 29.8875C34.9744 30.2395 35.0406 30.5998 35.0735 30.9634C35.3911 30.8589 35.6975 30.727 35.9894 30.5701ZM35.0867 31.1381C35.3968 31.0385 35.6966 30.9135 35.9833 30.7655C35.9688 31.0681 35.9303 31.3712 35.8673 31.6718C35.6128 31.839 35.345 31.9858 35.0668 32.1108C35.1 31.7868 35.1064 31.4614 35.0867 31.1381ZM34.9081 31.0151C34.877 30.6443 34.8103 30.2769 34.709 29.9187C34.3845 29.9744 34.051 30.0035 33.7108 30.0035H33.437C33.6093 30.3971 33.7373 30.8063 33.8207 31.2234C34.1934 31.1893 34.5572 31.1188 34.9081 31.0151ZM33.8518 31.3914C34.2175 31.357 34.5748 31.2885 34.9201 31.1888C34.9381 31.5209 34.9276 31.855 34.8882 32.1874C34.5815 32.3127 34.2631 32.4117 33.9364 32.4822C33.9415 32.117 33.9132 31.7517 33.8518 31.3914ZM33.6507 31.2363C33.5647 30.8141 33.4315 30.4003 33.2515 30.0035H31.7808C32.0163 30.3777 32.2056 30.7718 32.3492 31.1779L32.6987 31.2148C33.0201 31.2488 33.3382 31.2553 33.6507 31.2363ZM32.4088 31.3553L32.681 31.3841C33.0193 31.4199 33.354 31.4261 33.6824 31.4048C33.7459 31.7718 33.7741 32.1441 33.7666 32.5162C33.4068 32.5824 33.0378 32.6142 32.6637 32.6089C32.6241 32.1854 32.5393 31.7649 32.4088 31.3553ZM32.162 31.1581C32.014 30.7579 31.8199 30.3703 31.5794 30.0035H30.0153L30.2439 30.3199C30.4027 30.5399 30.5444 30.7672 30.6691 31.0002L32.162 31.1581ZM30.7619 31.1812L32.2244 31.3358C32.3621 31.7495 32.4516 32.175 32.4932 32.6039C32.1806 32.59 31.8648 32.5501 31.5486 32.4825L31.2052 32.4091C31.1046 31.99 30.9573 31.5782 30.7619 31.1812ZM30.464 30.9786C30.3569 30.7879 30.238 30.6014 30.107 30.4199L29.8062 30.0035H28.4606C28.4526 30.0035 28.4448 30.0035 28.4369 30.0034L28.9017 30.8133L30.464 30.9786ZM29.0062 30.9955L30.5616 31.16C30.7628 31.5502 30.9154 31.9561 31.0211 32.3697L29.5528 32.0557C29.4531 31.8108 29.3357 31.5698 29.2005 31.3342L29.0062 30.9955ZM28.6937 30.7913L28.2407 30.002C27.8401 29.9968 27.4411 29.9773 27.0444 29.9439L27.3566 30.6495C27.3967 30.654 27.4369 30.6584 27.4772 30.6627L28.6937 30.7913ZM27.4363 30.8295C27.444 30.8304 27.4518 30.8312 27.4595 30.832L28.7983 30.9735L29.0541 31.4193C29.1656 31.6135 29.2645 31.8116 29.3511 32.0125L27.8143 31.6838L27.4363 30.8295ZM27.8994 31.876L28.0575 32.2333C28.1674 32.4818 28.2591 32.7338 28.3328 32.9879L29.7606 33.4547C29.6986 33.0322 29.5889 32.6125 29.4294 32.2032L27.8994 31.876ZM29.6264 32.2454C29.7794 32.6608 29.8831 33.0859 29.9397 33.5132L30.273 33.6222C30.5807 33.7228 30.8907 33.7957 31.2003 33.8424C31.2035 33.4114 31.1588 32.9788 31.0647 32.553L29.6264 32.2454ZM31.2461 32.5917C31.3333 33.0129 31.3739 33.4399 31.3693 33.8653C31.7408 33.9098 32.111 33.917 32.4756 33.8889C32.5217 33.5197 32.5323 33.1465 32.5074 32.7749C32.1784 32.7615 31.8462 32.7202 31.5134 32.6489L31.2461 32.5917ZM32.6772 32.7794C32.7008 33.1441 32.6909 33.5104 32.6479 33.8731C32.9802 33.8372 33.307 33.7722 33.6249 33.68C33.6987 33.3536 33.7438 33.0223 33.7605 32.6903C33.4067 32.7531 33.0444 32.7836 32.6772 32.7794ZM33.9314 32.6573C33.9174 32.9809 33.8772 33.3038 33.8106 33.6226C34.1003 33.5276 34.3817 33.4097 34.6521 33.2702C34.7461 32.9779 34.8158 32.6805 34.8618 32.381C34.5612 32.4981 34.2501 32.5908 33.9314 32.6573ZM35.0435 32.3067C35.0048 32.5918 34.9451 32.8755 34.8643 33.1551C35.1031 33.019 35.3323 32.8657 35.55 32.6961C35.6575 32.4373 35.7448 32.1739 35.8124 31.908C35.5665 32.0593 35.3095 32.1927 35.0435 32.3067ZM36.0179 31.7756C35.9657 32.0108 35.8986 32.2446 35.8164 32.4753C35.99 32.3225 36.1549 32.1586 36.3099 31.9844C36.3566 31.8923 36.4011 31.7986 36.4434 31.7031C36.4971 31.5816 36.5463 31.4594 36.591 31.3364C36.4089 31.4945 36.2175 31.6411 36.0179 31.7756ZM36.8491 31.0986C36.8127 31.2178 36.7723 31.3363 36.728 31.4542C36.8655 31.2569 36.9917 31.0494 37.1051 30.8323C37.0225 30.9239 36.9371 31.0127 36.8491 31.0986ZM35.972 32.5642C35.88 32.6468 35.7855 32.7266 35.6887 32.8031C35.6399 32.9181 35.5872 33.0322 35.5307 33.1453C35.6886 32.9629 35.8362 32.7689 35.972 32.5642ZM35.0597 33.6284C35.1159 33.5416 35.1701 33.4527 35.2222 33.3618C35.2884 33.2467 35.35 33.1301 35.4073 33.0124C35.2096 33.1507 35.0039 33.2764 34.7913 33.3892C34.7147 33.618 34.6236 33.8436 34.5178 34.0647C34.7063 33.931 34.8873 33.7854 35.0597 33.6284ZM34.2298 34.2563C34.3638 34.0099 34.4781 33.7569 34.5732 33.4993C34.3128 33.624 34.0433 33.7295 33.767 33.815C33.6988 34.0946 33.61 34.3706 33.5005 34.6403C33.7519 34.5301 33.9958 34.4018 34.2298 34.2563ZM33.4036 34.8654C33.6266 34.7757 33.8442 34.6723 34.0551 34.5557C33.9859 34.6665 33.9127 34.7757 33.8351 34.8831C33.7737 34.9681 33.7104 35.051 33.6452 35.1317C33.4577 35.2696 33.2626 35.3952 33.0613 35.5084C33.1896 35.2996 33.3036 35.0848 33.4036 34.8654ZM33.2776 34.7324C33.4015 34.4514 33.5018 34.1629 33.5786 33.8698C33.2676 33.9545 32.9486 34.014 32.6248 34.0467C32.5772 34.367 32.5037 34.684 32.4043 34.9941C32.7021 34.9301 32.9942 34.8426 33.2776 34.7324ZM32.341 35.1809C32.6246 35.1251 32.9034 35.0484 33.1751 34.9519C33.0538 35.198 32.9139 35.4376 32.755 35.6685C32.5074 35.7885 32.2516 35.8905 31.9902 35.9735C32.1271 35.7168 32.2441 35.4518 32.341 35.1809ZM32.2137 35.0316C32.3211 34.7147 32.4003 34.3901 32.4514 34.0614C32.0931 34.0867 31.7297 34.0789 31.365 34.0361C31.3506 34.4015 31.3028 34.7647 31.2223 35.1208C31.5564 35.1202 31.8881 35.09 32.2137 35.0316ZM31.1813 35.291C31.5066 35.2927 31.8299 35.2671 32.1479 35.2155C32.041 35.4989 31.9113 35.7753 31.7589 36.0417C31.4658 36.1213 31.1663 36.1778 30.8636 36.21C30.9947 35.9121 31.1007 35.6047 31.1813 35.291ZM31.0493 35.1185C31.1334 34.7561 31.1829 34.3861 31.1966 34.0138C30.8707 33.966 30.5445 33.8898 30.2208 33.7841L29.9613 33.6992C30.0043 34.1271 30.0004 34.5562 29.9515 34.9786C30.3163 35.062 30.6838 35.108 31.0493 35.1185ZM29.9295 35.1481C30.2877 35.229 30.6483 35.2749 31.0073 35.2876C30.9224 35.6089 30.8098 35.9235 30.6701 36.2273C30.3402 36.2511 30.0072 36.2463 29.6749 36.2118C29.7919 35.8661 29.8772 35.5099 29.9295 35.1481ZM29.7858 34.9381C29.8338 34.5099 29.8342 34.0749 29.785 33.6415L28.3863 33.1844C28.4953 33.6135 28.5542 34.0471 28.5661 34.478L28.8866 34.6216C29.1821 34.7539 29.4828 34.8591 29.7858 34.9381ZM28.5683 34.6653L28.8178 34.777C29.1288 34.9164 29.4452 35.0263 29.7642 35.1083C29.712 35.477 29.6244 35.8398 29.503 36.1914C29.1406 36.1424 28.7798 36.058 28.4257 35.9366C28.5181 35.5216 28.5666 35.0954 28.5683 34.6653ZM28.3861 36.1029C28.2965 36.4572 28.1747 36.8025 28.0224 37.1341C28.3493 37.2033 28.6801 37.2431 29.0108 37.2541C29.1812 36.9666 29.3259 36.6657 29.4437 36.355C29.088 36.3047 28.734 36.2211 28.3861 36.1029ZM29.6164 36.3768C29.5037 36.6801 29.3662 36.9748 29.205 37.2572C29.5095 37.2569 29.8131 37.2324 30.113 37.1839C30.2922 36.935 30.4499 36.6738 30.5856 36.4033C30.2639 36.4211 29.9397 36.4126 29.6164 36.3768ZM30.7813 36.389C30.6567 36.6483 30.5129 36.8995 30.3501 37.1403C30.6186 37.0852 30.8834 37.0108 31.1422 36.9174C31.3241 36.7046 31.4881 36.4812 31.6342 36.2492C31.3541 36.3166 31.0689 36.3634 30.7813 36.389ZM31.8704 36.1872C31.7482 36.3948 31.6126 36.5964 31.4635 36.7904C31.6753 36.6991 31.8822 36.5947 32.0829 36.4773C32.1561 36.404 32.2277 36.3282 32.2976 36.25C32.3858 36.1515 32.47 36.0508 32.5502 35.9479C32.3284 36.0416 32.1013 36.1214 31.8704 36.1872ZM32.8686 35.8021C32.7972 35.9044 32.7222 36.0048 32.6435 36.1035C32.8355 35.9583 33.0198 35.7996 33.195 35.6279C33.0879 35.6895 32.979 35.7476 32.8686 35.8021ZM31.5836 36.9235C31.4708 36.9734 31.3566 37.0197 31.2413 37.0623C31.1597 37.1564 31.0746 37.2484 30.9861 37.3382C31.1921 37.2139 31.3917 37.0757 31.5836 36.9235ZM30.3899 37.6511C30.4702 37.5859 30.5491 37.5181 30.6267 37.4478C30.7247 37.3591 30.819 37.2676 30.9094 37.1739C30.6792 37.2436 30.4452 37.2992 30.2087 37.3403C30.0658 37.5339 29.91 37.72 29.7416 37.8972C29.9616 37.8287 30.1781 37.7467 30.3899 37.6511ZM29.4089 37.9899C29.6118 37.7974 29.798 37.5925 29.9674 37.3772C29.6818 37.4147 29.3933 37.4313 29.1044 37.4267C28.9538 37.6714 28.7846 37.906 28.5977 38.1284C28.8705 38.1018 29.1417 38.0556 29.4089 37.9899ZM28.4363 38.3124C28.6758 38.2964 28.9144 38.2657 29.1507 38.2205C29.0509 38.3043 28.9476 38.3854 28.8408 38.4634C28.7564 38.5251 28.6711 38.5841 28.5847 38.6403C28.364 38.7132 28.1399 38.7721 27.9139 38.8171C28.0997 38.6586 28.274 38.4899 28.4363 38.3124ZM28.3574 38.1468C28.5614 37.9182 28.7453 37.675 28.9084 37.4202C28.5865 37.4042 28.265 37.3616 27.9471 37.2919C27.8035 37.5818 27.6362 37.8604 27.4465 38.1243C27.7494 38.156 28.054 38.1635 28.3574 38.1468ZM27.3289 38.2822C27.6157 38.3173 27.9044 38.3311 28.1925 38.3237C28.0017 38.52 27.7951 38.7042 27.5733 38.8743C27.3007 38.9116 27.0262 38.929 26.752 38.9268C26.961 38.7253 27.1536 38.5097 27.3289 38.2822ZM26.5724 39.0928C26.3925 39.2524 26.2016 39.4018 26.0002 39.54C26.2297 39.519 26.4586 39.484 26.6857 39.4348C26.7776 39.3878 26.8687 39.3381 26.9591 39.2856C27.0734 39.2192 27.1846 39.1495 27.2926 39.0765C27.0528 39.0967 26.8123 39.1021 26.5724 39.0928ZM27.6403 39.0367C27.541 39.1117 27.4388 39.1839 27.3337 39.2533C27.5609 39.1749 27.7847 39.0813 28.0039 38.9725C27.8833 38.9978 27.7619 39.0191 27.6403 39.0367ZM26.0736 39.7039C25.9509 39.7163 25.8281 39.725 25.7053 39.7296C25.5988 39.7937 25.4897 39.8547 25.378 39.9127C25.6121 39.8585 25.8444 39.789 26.0736 39.7039ZM29.2102 38.3917C29.3074 38.3118 29.4015 38.2293 29.4923 38.1444C29.6114 38.1142 29.7296 38.0802 29.8469 38.0424C29.6404 38.1735 29.4277 38.2899 29.2102 38.3917ZM34.1638 34.701C34.2319 34.5945 34.2962 34.4865 34.3567 34.3773C34.4609 34.3113 34.5632 34.242 34.6634 34.1694C34.5069 34.3588 34.3399 34.5361 34.1638 34.701ZM37.7419 29.6495C37.7738 29.5271 37.8018 29.4046 37.8258 29.282C37.9046 29.1869 37.9805 29.0893 38.0534 28.9892C37.9629 29.2178 37.8586 29.4381 37.7419 29.6495ZM19.9786 40.6353C19.8582 40.609 19.7388 40.5789 19.6205 40.5452C19.4996 40.573 19.377 40.5971 19.253 40.6175C19.4922 40.6387 19.7345 40.645 19.9786 40.6353ZM18.5879 40.518C18.6908 40.5127 18.7943 40.5047 18.898 40.4937C19.0291 40.4798 19.1588 40.4616 19.2868 40.4391C19.0597 40.3595 18.8377 40.266 18.6223 40.1594C18.3936 40.2314 18.1588 40.2898 17.919 40.3336C18.1372 40.4083 18.3605 40.4701 18.5879 40.518ZM17.5957 40.2117C17.8724 40.1761 18.1428 40.1204 18.4056 40.0465C17.1278 39.347 16.1036 38.1731 15.6186 36.6712L13.9961 31.6475C13.1407 28.9987 12.9501 26.2065 13.4054 23.5105C13.3231 23.5007 13.2405 23.4928 13.1577 23.487C12.5873 25.9017 12.5468 28.4364 13.0695 30.9104L14.1611 36.0773C14.5702 38.0138 15.9024 39.5143 17.5957 40.2117ZM12.986 23.4777C12.4166 25.9076 12.3783 28.4571 12.9041 30.9457L13.9956 36.1127C14.394 37.9986 15.6428 39.4828 17.2522 40.2456C17.1225 40.2544 16.9916 40.2589 16.8596 40.2589C16.7553 40.2589 16.6517 40.2562 16.5488 40.2506C14.4572 39.5734 12.852 37.7086 12.6075 35.3686L12.0588 30.1152C11.8232 27.86 12.0428 25.6041 12.6802 23.4741H12.7932C12.8576 23.4741 12.9218 23.4753 12.986 23.4777ZM13.1981 23.3193C13.2772 23.3253 13.3561 23.3331 13.4345 23.3426C13.4618 23.1907 13.4911 23.039 13.5224 22.8877C13.4575 22.8678 13.3921 22.8492 13.3262 22.8318C13.2811 22.9937 13.2384 23.1562 13.1981 23.3193ZM13.1618 22.7915C13.1139 22.9633 13.0689 23.1359 13.0264 23.309C12.9489 23.3056 12.8711 23.3039 12.7932 23.3039H12.7322C12.7907 23.1155 12.8525 22.9282 12.9176 22.7419C12.9995 22.7565 13.081 22.773 13.1618 22.7915ZM13.3727 22.6681C13.4348 22.6845 13.4965 22.7021 13.5579 22.7206C13.5865 22.5889 13.6167 22.4573 13.6485 22.3262C13.5989 22.3012 13.5489 22.277 13.4985 22.2535C13.4547 22.3913 13.4128 22.5295 13.3727 22.6681ZM13.3429 22.1843C13.296 22.3315 13.2511 22.4792 13.2082 22.6275C13.1311 22.6099 13.0535 22.5937 12.9753 22.5794C13.0323 22.4215 13.0916 22.2643 13.1533 22.108C13.2171 22.1322 13.2803 22.1577 13.3429 22.1843ZM13.5511 22.0905C13.5979 22.1121 13.6443 22.1343 13.6904 22.1571C13.7194 22.0425 13.7496 21.9282 13.781 21.8141C13.7449 21.7877 13.7085 21.7619 13.6718 21.7364C13.6303 21.854 13.59 21.9721 13.5511 22.0905ZM13.5266 21.6393C13.4813 21.7664 13.4377 21.8939 13.3955 22.0219C13.3363 21.997 13.2766 21.973 13.2165 21.9502C13.2709 21.8165 13.3269 21.6834 13.3847 21.5511C13.4325 21.5798 13.4798 21.6092 13.5266 21.6393ZM13.7311 21.571C13.7643 21.5936 13.7973 21.6166 13.8299 21.64C13.8585 21.5403 13.8879 21.441 13.9182 21.3418C13.894 21.3173 13.8694 21.2929 13.8446 21.2688C13.8058 21.3692 13.768 21.47 13.7311 21.571ZM13.7116 21.1438C13.6685 21.2539 13.6266 21.3646 13.5858 21.4755C13.5423 21.4479 13.4984 21.4209 13.454 21.3945C13.505 21.2807 13.5573 21.1675 13.6109 21.0548C13.6449 21.084 13.6785 21.1137 13.7116 21.1438ZM13.9118 21.0979C13.9331 21.1182 13.9543 21.1386 13.9754 21.1592C14.0027 21.0735 14.0307 20.9879 14.0594 20.9026C14.045 20.8826 14.0305 20.8628 14.0159 20.843C13.9805 20.9277 13.9458 21.0127 13.9118 21.0979ZM13.8972 20.6887C13.8567 20.784 13.8171 20.8797 13.7784 20.9757C13.7483 20.9489 13.7178 20.9226 13.6871 20.8966C13.7342 20.8 13.7823 20.7037 13.8313 20.608C13.8536 20.6347 13.8755 20.6616 13.8972 20.6887ZM13.712 20.4696C13.6821 20.4362 13.6518 20.4031 13.621 20.3705C13.556 20.4769 13.4923 20.584 13.4297 20.6918C13.4711 20.7227 13.512 20.7542 13.5525 20.7863C13.6046 20.6803 13.6577 20.5747 13.712 20.4696ZM13.4766 20.9429C13.4332 20.908 13.3892 20.8737 13.3445 20.8402C13.2733 20.9659 13.2037 21.0923 13.1357 21.2197C13.1932 21.2487 13.25 21.2789 13.3063 21.3099C13.3616 21.1869 13.4184 21.0647 13.4766 20.9429ZM13.2371 21.4658C13.1776 21.4327 13.1173 21.4009 13.0564 21.3701C12.9789 21.519 12.9035 21.6689 12.8305 21.8201C12.9067 21.8425 12.9823 21.8667 13.0573 21.8925C13.1153 21.7495 13.1753 21.6073 13.2371 21.4658ZM12.994 22.0506C12.9155 22.0237 12.8362 21.9987 12.7561 21.9756C12.6721 22.154 12.5911 22.3339 12.5133 22.5151L12.5739 22.5214C12.6515 22.5297 12.7288 22.5396 12.8056 22.5511C12.8658 22.3834 12.9286 22.2165 12.994 22.0506ZM12.7478 22.7146C12.6842 22.7054 12.6204 22.6975 12.5563 22.6907L12.444 22.6789C12.3578 22.8855 12.2758 23.0939 12.1979 23.3039H12.5551C12.6157 23.1063 12.6801 22.9098 12.7478 22.7146ZM12.5037 23.4741H12.1357C11.4804 25.299 11.1361 27.2406 11.1361 29.2182V34.5004C11.1361 37.3466 13.1882 39.7104 15.8851 40.1758C14.036 39.3382 12.6666 37.5618 12.4393 35.3864L11.8905 30.133C11.6544 27.8725 11.871 25.611 12.5037 23.4741ZM12.0174 23.3039C12.0968 23.0876 12.1805 22.8731 12.2684 22.6603L6.2938 22.0285C3.17099 21.6983 0.875376 18.9709 1.02333 15.8547C0.860372 16.3893 0.772682 16.957 0.772682 17.5454C0.772682 20.7257 3.3352 23.3039 6.49622 23.3039H12.0174ZM1.25823 15.2206C1.24203 15.3229 1.22845 15.4261 1.21757 15.5303C0.887154 18.6932 3.16777 21.5268 6.31148 21.8592L12.3372 22.4964C12.4181 22.3063 12.5024 22.1177 12.5901 21.9306C12.5279 21.9148 12.4652 21.9002 12.4021 21.8867L6.24279 20.5695C3.41338 19.9644 1.49346 17.41 1.57664 14.6006C1.45857 14.7998 1.35212 15.0068 1.25823 15.2206ZM1.76228 14.3078C1.53093 17.1519 3.43015 19.794 6.27796 20.403L12.4373 21.7203C12.5136 21.7366 12.5894 21.7544 12.6646 21.7741C12.7418 21.6136 12.8216 21.4542 12.9039 21.2962C12.719 21.2102 12.5281 21.1349 12.3323 21.0709L6.34358 19.1131C3.91421 18.3189 2.34812 16.0876 2.27305 13.6586C2.08792 13.8621 1.91712 14.079 1.76228 14.3078ZM2.27057 13.4132C2.1032 13.5865 1.94625 13.77 1.80076 13.9626C1.81915 13.833 1.84202 13.7031 1.86949 13.5731C1.89116 13.4704 1.91542 13.3691 1.94219 13.269C2.05775 13.0663 2.18507 12.8718 2.32313 12.6861C2.29044 12.9292 2.27312 13.172 2.27057 13.4132ZM2.43945 13.4832C2.4426 15.9078 3.97962 18.1614 6.39586 18.9512L12.3846 20.909C12.5898 20.976 12.7896 21.0551 12.9832 21.1455C13.0558 21.0094 13.1303 20.8742 13.2066 20.7399C12.9384 20.5517 12.6513 20.388 12.3482 20.2522L6.59567 17.6754C4.60563 16.784 3.34858 14.9191 3.13181 12.8862C2.88543 13.0667 2.65391 13.2664 2.43945 13.4832ZM3.11414 12.6897C2.87747 12.8569 2.65359 13.0411 2.44425 13.2407C2.45549 12.9662 2.48649 12.6903 2.53818 12.4144C2.7161 12.203 2.90869 12.0051 3.11417 11.822C3.09283 12.1126 3.09311 12.4026 3.11414 12.6897ZM3.29078 12.774C3.47195 14.7849 4.70084 16.6403 6.66447 17.52L12.4171 20.0968C12.7255 20.235 13.0181 20.4012 13.2917 20.5921C13.3594 20.4757 13.4285 20.36 13.499 20.2452C13.1871 19.9353 12.8348 19.664 12.4488 19.4397L6.99544 16.272C5.46366 15.3822 4.47915 13.9051 4.16071 12.2865C3.85567 12.4238 3.56475 12.5873 3.29078 12.774ZM4.12942 12.1142C3.83141 12.2459 3.5463 12.4017 3.27653 12.579C3.25956 12.2764 3.26633 11.9708 3.29789 11.6651C3.53361 11.4722 3.78448 11.2981 4.04811 11.1446C4.0488 11.4705 4.07621 11.7947 4.12942 12.1142ZM4.05096 10.9474C4.05989 10.6595 4.08976 10.3712 4.14117 10.0844C3.91799 10.2447 3.70605 10.4211 3.50728 10.6125C3.42715 10.8814 3.3676 11.1527 3.32788 11.4245C3.5567 11.2482 3.79837 11.0886 4.05096 10.9474ZM3.13721 11.5778C3.16484 11.338 3.20733 11.0983 3.26515 10.86C3.10827 11.0303 2.96116 11.2108 2.82495 11.4005C2.78795 11.4972 2.75332 11.5954 2.72112 11.6951C2.6803 11.8215 2.64407 11.9483 2.61232 12.0752C2.7772 11.8987 2.95255 11.7326 3.13721 11.5778ZM2.38036 12.3388C2.40429 12.2162 2.43219 12.0938 2.46416 11.9715C2.34754 12.1827 2.24339 12.4029 2.1529 12.6313C2.22577 12.5314 2.30163 12.4337 2.38036 12.3388ZM3.10073 10.7885C3.18386 10.6964 3.26973 10.6071 3.35819 10.5207C3.39485 10.401 3.43547 10.2817 3.48013 10.1631C3.34171 10.3615 3.21482 10.5701 3.10073 10.7885ZM3.89839 9.63345C3.85126 9.7262 3.80635 9.82079 3.76373 9.91703C3.71011 10.0382 3.66099 10.1603 3.61629 10.283C3.79845 10.1249 3.98992 9.97834 4.18947 9.84389C4.24186 9.60834 4.30905 9.37444 4.39136 9.14338C4.21801 9.29589 4.05329 9.45949 3.89839 9.63345ZM4.51915 8.81562C4.56786 8.70087 4.62045 8.58704 4.67695 8.47422C4.51934 8.65624 4.37203 8.84972 4.23637 9.05402C4.32826 8.97144 4.42258 8.89197 4.51915 8.81562ZM1.64267 13.8748C1.62357 13.9998 1.60853 14.1247 1.59745 14.2491C1.52898 14.352 1.46361 14.4571 1.4015 14.5643C1.4678 14.3274 1.54856 14.0973 1.64267 13.8748ZM17.2 40.4194C17.3254 40.4123 17.4498 40.4011 17.573 40.3862C17.6871 40.4322 17.8028 40.4746 17.9198 40.5135C17.676 40.4974 17.4357 40.4658 17.2 40.4194ZM8.62206 4.69718C8.73493 4.64716 8.84926 4.60079 8.96477 4.55811C9.04639 4.46395 9.13156 4.37185 9.22002 4.28198C9.01387 4.40633 8.81409 4.54475 8.62206 4.69718ZM9.81625 3.96904C9.73608 4.0342 9.65719 4.10187 9.57976 4.17206C9.48156 4.26098 9.38718 4.35255 9.29663 4.44654C9.52701 4.37662 9.76141 4.32097 9.99817 4.2798C10.1412 4.08611 10.2971 3.89991 10.4656 3.72256C10.2452 3.79113 10.0283 3.87331 9.81625 3.96904ZM10.7148 3.47547C10.8059 3.39035 10.9002 3.30765 10.9977 3.22753C10.7795 3.32956 10.5662 3.44629 10.3593 3.57779C10.4768 3.53989 10.5954 3.50579 10.7148 3.47547ZM10.7983 3.62999C10.5953 3.82258 10.4089 4.02759 10.2395 4.24297C10.5253 4.20539 10.8139 4.18876 11.103 4.19348C11.2538 3.94872 11.4229 3.71396 11.6099 3.49152C11.3368 3.51807 11.0655 3.56427 10.7983 3.62999ZM11.8502 3.47324C11.6461 3.70188 11.4621 3.94507 11.299 4.19997C11.621 4.216 11.9425 4.25862 12.2606 4.32837C12.4041 4.03843 12.5715 3.75985 12.7612 3.49588C12.4582 3.46406 12.1536 3.45658 11.8502 3.47324ZM12.954 3.51946C12.7547 3.78741 12.5795 4.07156 12.43 4.36819C12.7786 4.45564 13.1221 4.57608 13.4558 4.73026C13.5817 4.38731 13.7387 4.05672 13.9246 3.74296C13.6066 3.63964 13.2817 3.5652 12.954 3.51946ZM14.0885 3.79899C13.8971 4.11745 13.7365 4.45407 13.6092 4.80383C13.904 4.9506 14.1906 5.12429 14.4658 5.3254L14.6879 5.48775C14.7784 5.06735 14.9138 4.66051 15.09 4.27382C14.7685 4.08088 14.433 3.92269 14.0885 3.79899ZM15.2351 4.36392C15.058 4.75633 14.9241 5.16992 14.838 5.59742L16.028 6.46735C16.0561 6.02539 16.1331 5.59462 16.2541 5.18115L15.9921 4.94377C15.752 4.72634 15.4987 4.5331 15.2351 4.36392ZM16.394 5.30791C16.28 5.71915 16.2107 6.14744 16.191 6.58648L17.4565 7.51158V7.11952C17.4565 6.84794 17.4747 6.58062 17.5098 6.31874L16.394 5.30791ZM16.1298 1.39166C16.2531 1.39219 16.3762 1.39662 16.4988 1.40488C16.6115 1.35232 16.7265 1.30304 16.8436 1.25718C16.6051 1.28639 16.3667 1.33105 16.1298 1.39166Z" fill="#4845D2"/></g>
        <g id="logotype" transform="translate(40, 20.5)"></g>
        
      </svg>
    